<mxfile host="app.diagrams.net" agent="Mozilla/5.0 (Windows NT 10.0; Win64; x64) AppleWebKit/537.36 (KHTML, like Gecko) Chrome/129.0.0.0 Safari/537.36" version="24.7.17">
  <diagram name="Página-1" id="ChX-HjCW60LCfeG28hYY">
    <mxGraphModel dx="2022" dy="1819" grid="1" gridSize="10" guides="1" tooltips="1" connect="1" arrows="1" fold="1" page="1" pageScale="1" pageWidth="827" pageHeight="1169" math="0" shadow="0">
      <root>
        <object label="" id="0">
          <mxCell />
        </object>
        <mxCell id="1" parent="0" />
        <mxCell id="sYYE232gGUa4oi_XJ-Jl-1" value="Actor" style="shape=umlActor;verticalLabelPosition=bottom;verticalAlign=top;html=1;outlineConnect=0;" parent="1" vertex="1">
          <mxGeometry x="-140" y="534" width="60" height="100" as="geometry" />
        </mxCell>
        <mxCell id="sYYE232gGUa4oi_XJ-Jl-2" value="" style="rounded=1;whiteSpace=wrap;html=1;" parent="1" vertex="1">
          <mxGeometry x="15" y="120" width="750" height="1000" as="geometry" />
        </mxCell>
        <mxCell id="sYYE232gGUa4oi_XJ-Jl-3" value="&lt;div&gt;&lt;span style=&quot;background-color: initial;&quot;&gt;Fazer login&lt;/span&gt;&lt;br&gt;&lt;/div&gt;" style="ellipse;whiteSpace=wrap;html=1;fillColor=#dae8fc;strokeColor=#6c8ebf;" parent="1" vertex="1">
          <mxGeometry x="585" y="310" width="120" height="80" as="geometry" />
        </mxCell>
        <mxCell id="sYYE232gGUa4oi_XJ-Jl-4" value="Consultar calendário" style="ellipse;whiteSpace=wrap;html=1;" parent="1" vertex="1">
          <mxGeometry x="115" y="545" width="120" height="80" as="geometry" />
        </mxCell>
        <mxCell id="sYYE232gGUa4oi_XJ-Jl-5" value="" style="endArrow=none;dashed=1;html=1;dashPattern=1 3;strokeWidth=2;rounded=0;exitX=1;exitY=0.5;exitDx=0;exitDy=0;" parent="1" source="sYYE232gGUa4oi_XJ-Jl-4" target="sYYE232gGUa4oi_XJ-Jl-3" edge="1">
          <mxGeometry width="50" height="50" relative="1" as="geometry">
            <mxPoint x="390" y="430" as="sourcePoint" />
            <mxPoint x="440" y="380" as="targetPoint" />
          </mxGeometry>
        </mxCell>
        <mxCell id="sYYE232gGUa4oi_XJ-Jl-56" value="&amp;lt;&amp;lt;includes&amp;gt;&amp;gt;" style="edgeLabel;html=1;align=center;verticalAlign=middle;resizable=0;points=[];" parent="sYYE232gGUa4oi_XJ-Jl-5" vertex="1" connectable="0">
          <mxGeometry x="-0.1817" y="-1" relative="1" as="geometry">
            <mxPoint as="offset" />
          </mxGeometry>
        </mxCell>
        <mxCell id="sYYE232gGUa4oi_XJ-Jl-9" value="" style="endArrow=none;dashed=1;html=1;dashPattern=1 3;strokeWidth=2;rounded=0;" parent="1" source="sYYE232gGUa4oi_XJ-Jl-7" target="sYYE232gGUa4oi_XJ-Jl-3" edge="1">
          <mxGeometry width="50" height="50" relative="1" as="geometry">
            <mxPoint x="390" y="430" as="sourcePoint" />
            <mxPoint x="440" y="380" as="targetPoint" />
          </mxGeometry>
        </mxCell>
        <mxCell id="sYYE232gGUa4oi_XJ-Jl-88" value="&amp;lt;&amp;lt;includes&amp;gt;&amp;gt;" style="edgeLabel;html=1;align=center;verticalAlign=middle;resizable=0;points=[];" parent="sYYE232gGUa4oi_XJ-Jl-9" vertex="1" connectable="0">
          <mxGeometry x="0.025" y="3" relative="1" as="geometry">
            <mxPoint x="1" as="offset" />
          </mxGeometry>
        </mxCell>
        <mxCell id="sYYE232gGUa4oi_XJ-Jl-11" value="Consultar Quadro de Horários" style="ellipse;whiteSpace=wrap;html=1;" parent="1" vertex="1">
          <mxGeometry x="160" y="330" width="130" height="80" as="geometry" />
        </mxCell>
        <mxCell id="sYYE232gGUa4oi_XJ-Jl-12" value="" style="endArrow=none;dashed=1;html=1;dashPattern=1 3;strokeWidth=2;rounded=0;" parent="1" source="sYYE232gGUa4oi_XJ-Jl-11" target="sYYE232gGUa4oi_XJ-Jl-3" edge="1">
          <mxGeometry width="50" height="50" relative="1" as="geometry">
            <mxPoint x="390" y="430" as="sourcePoint" />
            <mxPoint x="440" y="380" as="targetPoint" />
          </mxGeometry>
        </mxCell>
        <mxCell id="sYYE232gGUa4oi_XJ-Jl-53" value="&amp;lt;&amp;lt;includes&amp;gt;&amp;gt;" style="edgeLabel;html=1;align=center;verticalAlign=middle;resizable=0;points=[];" parent="sYYE232gGUa4oi_XJ-Jl-12" vertex="1" connectable="0">
          <mxGeometry x="0.2073" y="-1" relative="1" as="geometry">
            <mxPoint as="offset" />
          </mxGeometry>
        </mxCell>
        <mxCell id="sYYE232gGUa4oi_XJ-Jl-14" value="Consultar Quadro de Horários" style="ellipse;whiteSpace=wrap;html=1;" parent="1" vertex="1">
          <mxGeometry x="120" y="170" width="120" height="80" as="geometry" />
        </mxCell>
        <mxCell id="sYYE232gGUa4oi_XJ-Jl-15" value="" style="endArrow=none;dashed=1;html=1;dashPattern=1 3;strokeWidth=2;rounded=0;" parent="1" source="sYYE232gGUa4oi_XJ-Jl-14" target="sYYE232gGUa4oi_XJ-Jl-3" edge="1">
          <mxGeometry width="50" height="50" relative="1" as="geometry">
            <mxPoint x="329" y="403" as="sourcePoint" />
            <mxPoint x="542" y="316" as="targetPoint" />
          </mxGeometry>
        </mxCell>
        <mxCell id="sYYE232gGUa4oi_XJ-Jl-54" value="&amp;lt;&amp;lt;includes&amp;gt;&amp;gt;" style="edgeLabel;html=1;align=center;verticalAlign=middle;resizable=0;points=[];" parent="sYYE232gGUa4oi_XJ-Jl-15" vertex="1" connectable="0">
          <mxGeometry x="0.2605" y="-2" relative="1" as="geometry">
            <mxPoint x="1" as="offset" />
          </mxGeometry>
        </mxCell>
        <mxCell id="sYYE232gGUa4oi_XJ-Jl-18" value="Consultar Notas" style="ellipse;whiteSpace=wrap;html=1;" parent="1" vertex="1">
          <mxGeometry x="190" y="250" width="120" height="80" as="geometry" />
        </mxCell>
        <mxCell id="sYYE232gGUa4oi_XJ-Jl-19" value="Consultar Faltas" style="ellipse;whiteSpace=wrap;html=1;" parent="1" vertex="1">
          <mxGeometry x="100" y="420" width="120" height="80" as="geometry" />
        </mxCell>
        <mxCell id="sYYE232gGUa4oi_XJ-Jl-23" value="" style="endArrow=none;dashed=1;html=1;dashPattern=1 3;strokeWidth=2;rounded=0;exitX=0.995;exitY=0.731;exitDx=0;exitDy=0;exitPerimeter=0;" parent="1" source="sYYE232gGUa4oi_XJ-Jl-18" target="sYYE232gGUa4oi_XJ-Jl-3" edge="1">
          <mxGeometry width="50" height="50" relative="1" as="geometry">
            <mxPoint x="340" y="520" as="sourcePoint" />
            <mxPoint x="570" y="317" as="targetPoint" />
          </mxGeometry>
        </mxCell>
        <mxCell id="sYYE232gGUa4oi_XJ-Jl-55" value="&amp;lt;&amp;lt;includes&amp;gt;&amp;gt;" style="edgeLabel;html=1;align=center;verticalAlign=middle;resizable=0;points=[];" parent="sYYE232gGUa4oi_XJ-Jl-23" vertex="1" connectable="0">
          <mxGeometry x="-0.1507" relative="1" as="geometry">
            <mxPoint as="offset" />
          </mxGeometry>
        </mxCell>
        <mxCell id="sYYE232gGUa4oi_XJ-Jl-24" value="" style="endArrow=none;dashed=1;html=1;dashPattern=1 3;strokeWidth=2;rounded=0;" parent="1" source="sYYE232gGUa4oi_XJ-Jl-19" target="sYYE232gGUa4oi_XJ-Jl-3" edge="1">
          <mxGeometry width="50" height="50" relative="1" as="geometry">
            <mxPoint x="357" y="562" as="sourcePoint" />
            <mxPoint x="580" y="320" as="targetPoint" />
          </mxGeometry>
        </mxCell>
        <mxCell id="sYYE232gGUa4oi_XJ-Jl-58" value="&amp;lt;&amp;lt;includes&amp;gt;&amp;gt;" style="edgeLabel;html=1;align=center;verticalAlign=middle;resizable=0;points=[];" parent="sYYE232gGUa4oi_XJ-Jl-24" vertex="1" connectable="0">
          <mxGeometry x="0.0217" y="2" relative="1" as="geometry">
            <mxPoint x="-1" as="offset" />
          </mxGeometry>
        </mxCell>
        <mxCell id="sYYE232gGUa4oi_XJ-Jl-25" value="Acessar Mural" style="ellipse;whiteSpace=wrap;html=1;" parent="1" vertex="1">
          <mxGeometry x="140" y="650" width="120" height="80" as="geometry" />
        </mxCell>
        <mxCell id="sYYE232gGUa4oi_XJ-Jl-26" value="" style="endArrow=none;dashed=1;html=1;dashPattern=1 3;strokeWidth=2;rounded=0;exitX=1;exitY=0;exitDx=0;exitDy=0;" parent="1" source="sYYE232gGUa4oi_XJ-Jl-25" target="sYYE232gGUa4oi_XJ-Jl-3" edge="1">
          <mxGeometry width="50" height="50" relative="1" as="geometry">
            <mxPoint x="310" y="245" as="sourcePoint" />
            <mxPoint x="520" y="280" as="targetPoint" />
          </mxGeometry>
        </mxCell>
        <mxCell id="sYYE232gGUa4oi_XJ-Jl-57" value="&amp;lt;&amp;lt;includes&amp;gt;&amp;gt;" style="edgeLabel;html=1;align=center;verticalAlign=middle;resizable=0;points=[];" parent="sYYE232gGUa4oi_XJ-Jl-26" vertex="1" connectable="0">
          <mxGeometry x="-0.0803" y="1" relative="1" as="geometry">
            <mxPoint as="offset" />
          </mxGeometry>
        </mxCell>
        <mxCell id="sYYE232gGUa4oi_XJ-Jl-29" value="&lt;h2&gt;Mural/Calendário/Grade Curricular/Quadro de horários/Rematrícula&lt;/h2&gt;" style="text;html=1;align=center;verticalAlign=middle;resizable=0;points=[];autosize=1;strokeColor=none;fillColor=none;" parent="1" vertex="1">
          <mxGeometry x="105" y="120" width="600" height="60" as="geometry" />
        </mxCell>
        <mxCell id="sYYE232gGUa4oi_XJ-Jl-30" value="" style="rounded=1;whiteSpace=wrap;html=1;" parent="1" vertex="1">
          <mxGeometry x="-60" y="1280" width="1100" height="597.5" as="geometry" />
        </mxCell>
        <mxCell id="sYYE232gGUa4oi_XJ-Jl-31" value="Actor" style="shape=umlActor;verticalLabelPosition=bottom;verticalAlign=top;html=1;outlineConnect=0;" parent="1" vertex="1">
          <mxGeometry x="-190" y="1570" width="90" height="120" as="geometry" />
        </mxCell>
        <mxCell id="sYYE232gGUa4oi_XJ-Jl-32" value="&lt;div&gt;&lt;span style=&quot;background-color: initial;&quot;&gt;Fazer login&lt;/span&gt;&lt;br&gt;&lt;/div&gt;" style="ellipse;whiteSpace=wrap;html=1;fillColor=#dae8fc;strokeColor=#6c8ebf;" parent="1" vertex="1">
          <mxGeometry x="620" y="1618.75" width="120" height="80" as="geometry" />
        </mxCell>
        <mxCell id="sYYE232gGUa4oi_XJ-Jl-33" value="Consultar todas as disciplinas" style="ellipse;whiteSpace=wrap;html=1;" parent="1" vertex="1">
          <mxGeometry x="110" y="740" width="130" height="80" as="geometry" />
        </mxCell>
        <mxCell id="sYYE232gGUa4oi_XJ-Jl-34" value="Consultar disciplinas cursando" style="ellipse;whiteSpace=wrap;html=1;" parent="1" vertex="1">
          <mxGeometry x="110" y="840" width="130" height="80" as="geometry" />
        </mxCell>
        <mxCell id="sYYE232gGUa4oi_XJ-Jl-36" value="Consultar disciplinas pendentes" style="ellipse;whiteSpace=wrap;html=1;" parent="1" vertex="1">
          <mxGeometry x="110" y="940" width="130" height="80" as="geometry" />
        </mxCell>
        <mxCell id="sYYE232gGUa4oi_XJ-Jl-37" value="Consultar disciplinas concluidas" style="ellipse;whiteSpace=wrap;html=1;" parent="1" vertex="1">
          <mxGeometry x="110" y="1030" width="130" height="80" as="geometry" />
        </mxCell>
        <mxCell id="sYYE232gGUa4oi_XJ-Jl-38" value="" style="endArrow=none;dashed=1;html=1;dashPattern=1 3;strokeWidth=2;rounded=0;" parent="1" source="sYYE232gGUa4oi_XJ-Jl-7" target="sYYE232gGUa4oi_XJ-Jl-33" edge="1">
          <mxGeometry width="50" height="50" relative="1" as="geometry">
            <mxPoint x="350" y="430" as="sourcePoint" />
            <mxPoint x="400" y="380" as="targetPoint" />
          </mxGeometry>
        </mxCell>
        <mxCell id="sYYE232gGUa4oi_XJ-Jl-45" value="&amp;lt;&amp;lt;includes&amp;gt;&amp;gt;" style="edgeLabel;html=1;align=center;verticalAlign=middle;resizable=0;points=[];" parent="sYYE232gGUa4oi_XJ-Jl-38" vertex="1" connectable="0">
          <mxGeometry x="-0.1421" y="2" relative="1" as="geometry">
            <mxPoint x="-66" y="26" as="offset" />
          </mxGeometry>
        </mxCell>
        <mxCell id="sYYE232gGUa4oi_XJ-Jl-39" value="" style="endArrow=none;dashed=1;html=1;dashPattern=1 3;strokeWidth=2;rounded=0;" parent="1" source="sYYE232gGUa4oi_XJ-Jl-36" target="sYYE232gGUa4oi_XJ-Jl-7" edge="1">
          <mxGeometry width="50" height="50" relative="1" as="geometry">
            <mxPoint x="155" y="470" as="sourcePoint" />
            <mxPoint x="208" y="397" as="targetPoint" />
          </mxGeometry>
        </mxCell>
        <mxCell id="sYYE232gGUa4oi_XJ-Jl-47" value="&amp;lt;&amp;lt;includes&amp;gt;&amp;gt;" style="edgeLabel;html=1;align=center;verticalAlign=middle;resizable=0;points=[];" parent="sYYE232gGUa4oi_XJ-Jl-39" vertex="1" connectable="0">
          <mxGeometry x="0.1031" y="-2" relative="1" as="geometry">
            <mxPoint as="offset" />
          </mxGeometry>
        </mxCell>
        <mxCell id="sYYE232gGUa4oi_XJ-Jl-44" value="" style="endArrow=none;dashed=1;html=1;dashPattern=1 3;strokeWidth=2;rounded=0;exitX=0.942;exitY=0.359;exitDx=0;exitDy=0;exitPerimeter=0;" parent="1" source="sYYE232gGUa4oi_XJ-Jl-37" target="sYYE232gGUa4oi_XJ-Jl-7" edge="1">
          <mxGeometry width="50" height="50" relative="1" as="geometry">
            <mxPoint x="392" y="457" as="sourcePoint" />
            <mxPoint x="560" y="300" as="targetPoint" />
          </mxGeometry>
        </mxCell>
        <mxCell id="sYYE232gGUa4oi_XJ-Jl-96" value="&amp;lt;&amp;lt;includes&amp;gt;&amp;gt;" style="edgeLabel;html=1;align=center;verticalAlign=middle;resizable=0;points=[];" parent="sYYE232gGUa4oi_XJ-Jl-44" vertex="1" connectable="0">
          <mxGeometry x="0.0145" relative="1" as="geometry">
            <mxPoint as="offset" />
          </mxGeometry>
        </mxCell>
        <mxCell id="sYYE232gGUa4oi_XJ-Jl-60" value="" style="endArrow=none;html=1;rounded=0;" parent="1" target="sYYE232gGUa4oi_XJ-Jl-14" edge="1">
          <mxGeometry width="50" height="50" relative="1" as="geometry">
            <mxPoint x="-80" y="570" as="sourcePoint" />
            <mxPoint x="360" y="510" as="targetPoint" />
          </mxGeometry>
        </mxCell>
        <mxCell id="sYYE232gGUa4oi_XJ-Jl-61" value="" style="endArrow=none;html=1;rounded=0;entryX=0;entryY=0.5;entryDx=0;entryDy=0;" parent="1" target="sYYE232gGUa4oi_XJ-Jl-18" edge="1">
          <mxGeometry width="50" height="50" relative="1" as="geometry">
            <mxPoint x="-80" y="570" as="sourcePoint" />
            <mxPoint x="143" y="245" as="targetPoint" />
          </mxGeometry>
        </mxCell>
        <mxCell id="sYYE232gGUa4oi_XJ-Jl-63" value="" style="endArrow=none;html=1;rounded=0;entryX=0.021;entryY=0.703;entryDx=0;entryDy=0;entryPerimeter=0;" parent="1" target="sYYE232gGUa4oi_XJ-Jl-19" edge="1">
          <mxGeometry width="50" height="50" relative="1" as="geometry">
            <mxPoint x="-80" y="570" as="sourcePoint" />
            <mxPoint x="180" y="440" as="targetPoint" />
          </mxGeometry>
        </mxCell>
        <mxCell id="sYYE232gGUa4oi_XJ-Jl-64" value="" style="endArrow=none;html=1;rounded=0;" parent="1" target="sYYE232gGUa4oi_XJ-Jl-25" edge="1">
          <mxGeometry width="50" height="50" relative="1" as="geometry">
            <mxPoint x="-80" y="570" as="sourcePoint" />
            <mxPoint x="229" y="445" as="targetPoint" />
          </mxGeometry>
        </mxCell>
        <mxCell id="sYYE232gGUa4oi_XJ-Jl-65" value="" style="endArrow=none;html=1;rounded=0;exitX=1;exitY=0.3333333333333333;exitDx=0;exitDy=0;exitPerimeter=0;" parent="1" source="sYYE232gGUa4oi_XJ-Jl-1" target="sYYE232gGUa4oi_XJ-Jl-4" edge="1">
          <mxGeometry width="50" height="50" relative="1" as="geometry">
            <mxPoint x="10" y="330" as="sourcePoint" />
            <mxPoint x="171" y="526" as="targetPoint" />
          </mxGeometry>
        </mxCell>
        <mxCell id="sYYE232gGUa4oi_XJ-Jl-69" value="Consultar Faltas" style="ellipse;whiteSpace=wrap;html=1;" parent="1" vertex="1">
          <mxGeometry x="360" y="1380" width="130" height="80" as="geometry" />
        </mxCell>
        <mxCell id="sYYE232gGUa4oi_XJ-Jl-70" value="Consultar Faltas por Etapa" style="ellipse;whiteSpace=wrap;html=1;" parent="1" vertex="1">
          <mxGeometry x="115" y="1340" width="130" height="80" as="geometry" />
        </mxCell>
        <mxCell id="sYYE232gGUa4oi_XJ-Jl-71" value="Consultar Faltas por Aula" style="ellipse;whiteSpace=wrap;html=1;" parent="1" vertex="1">
          <mxGeometry x="130" y="1470" width="130" height="80" as="geometry" />
        </mxCell>
        <mxCell id="sYYE232gGUa4oi_XJ-Jl-75" value="" style="endArrow=none;dashed=1;html=1;dashPattern=1 3;strokeWidth=2;rounded=0;entryX=0.962;entryY=0.688;entryDx=0;entryDy=0;entryPerimeter=0;" parent="1" source="sYYE232gGUa4oi_XJ-Jl-32" target="sYYE232gGUa4oi_XJ-Jl-69" edge="1">
          <mxGeometry width="50" height="50" relative="1" as="geometry">
            <mxPoint x="551.363384124395" y="1480.353749519627" as="sourcePoint" />
            <mxPoint x="647.5099059643699" y="1453.2345812548347" as="targetPoint" />
          </mxGeometry>
        </mxCell>
        <mxCell id="sYYE232gGUa4oi_XJ-Jl-78" value="&amp;lt;&amp;lt;includes&amp;gt;&amp;gt;" style="edgeLabel;html=1;align=center;verticalAlign=middle;resizable=0;points=[];" parent="sYYE232gGUa4oi_XJ-Jl-75" vertex="1" connectable="0">
          <mxGeometry x="0.0504" y="2" relative="1" as="geometry">
            <mxPoint as="offset" />
          </mxGeometry>
        </mxCell>
        <mxCell id="sYYE232gGUa4oi_XJ-Jl-82" value="Consultar Notas" style="ellipse;whiteSpace=wrap;html=1;" parent="1" vertex="1">
          <mxGeometry x="260" y="1538.75" width="130" height="80" as="geometry" />
        </mxCell>
        <mxCell id="sYYE232gGUa4oi_XJ-Jl-86" value="" style="endArrow=none;dashed=1;html=1;dashPattern=1 3;strokeWidth=2;rounded=0;" parent="1" source="sYYE232gGUa4oi_XJ-Jl-34" target="sYYE232gGUa4oi_XJ-Jl-7" edge="1">
          <mxGeometry width="50" height="50" relative="1" as="geometry">
            <mxPoint x="553" y="631" as="sourcePoint" />
            <mxPoint x="632" y="389" as="targetPoint" />
          </mxGeometry>
        </mxCell>
        <mxCell id="sYYE232gGUa4oi_XJ-Jl-87" value="&amp;lt;&amp;lt;includes&amp;gt;&amp;gt;" style="edgeLabel;html=1;align=center;verticalAlign=middle;resizable=0;points=[];" parent="sYYE232gGUa4oi_XJ-Jl-86" vertex="1" connectable="0">
          <mxGeometry x="-0.0425" y="3" relative="1" as="geometry">
            <mxPoint as="offset" />
          </mxGeometry>
        </mxCell>
        <mxCell id="sYYE232gGUa4oi_XJ-Jl-7" value="Consultar Grade Curricular" style="ellipse;whiteSpace=wrap;html=1;" parent="1" vertex="1">
          <mxGeometry x="550" y="610" width="130" height="80" as="geometry" />
        </mxCell>
        <mxCell id="sYYE232gGUa4oi_XJ-Jl-91" value="" style="endArrow=none;html=1;rounded=0;exitX=1;exitY=0.3333333333333333;exitDx=0;exitDy=0;exitPerimeter=0;entryX=0;entryY=0;entryDx=0;entryDy=0;" parent="1" source="sYYE232gGUa4oi_XJ-Jl-1" target="sYYE232gGUa4oi_XJ-Jl-33" edge="1">
          <mxGeometry width="50" height="50" relative="1" as="geometry">
            <mxPoint x="640" y="780" as="sourcePoint" />
            <mxPoint x="690" y="730" as="targetPoint" />
          </mxGeometry>
        </mxCell>
        <mxCell id="sYYE232gGUa4oi_XJ-Jl-92" value="" style="endArrow=none;html=1;rounded=0;exitX=1;exitY=0.3333333333333333;exitDx=0;exitDy=0;exitPerimeter=0;entryX=0;entryY=0;entryDx=0;entryDy=0;" parent="1" source="sYYE232gGUa4oi_XJ-Jl-1" target="sYYE232gGUa4oi_XJ-Jl-34" edge="1">
          <mxGeometry width="50" height="50" relative="1" as="geometry">
            <mxPoint x="640" y="780" as="sourcePoint" />
            <mxPoint x="690" y="730" as="targetPoint" />
          </mxGeometry>
        </mxCell>
        <mxCell id="sYYE232gGUa4oi_XJ-Jl-93" value="" style="endArrow=none;html=1;rounded=0;exitX=1;exitY=0.3333333333333333;exitDx=0;exitDy=0;exitPerimeter=0;entryX=0;entryY=0;entryDx=0;entryDy=0;" parent="1" source="sYYE232gGUa4oi_XJ-Jl-1" target="sYYE232gGUa4oi_XJ-Jl-36" edge="1">
          <mxGeometry width="50" height="50" relative="1" as="geometry">
            <mxPoint x="640" y="530" as="sourcePoint" />
            <mxPoint x="690" y="480" as="targetPoint" />
          </mxGeometry>
        </mxCell>
        <mxCell id="sYYE232gGUa4oi_XJ-Jl-95" value="" style="endArrow=none;html=1;rounded=0;exitX=1;exitY=0.3333333333333333;exitDx=0;exitDy=0;exitPerimeter=0;entryX=0;entryY=0.5;entryDx=0;entryDy=0;" parent="1" source="sYYE232gGUa4oi_XJ-Jl-1" target="sYYE232gGUa4oi_XJ-Jl-37" edge="1">
          <mxGeometry width="50" height="50" relative="1" as="geometry">
            <mxPoint x="640" y="530" as="sourcePoint" />
            <mxPoint x="690" y="480" as="targetPoint" />
          </mxGeometry>
        </mxCell>
        <mxCell id="sYYE232gGUa4oi_XJ-Jl-98" value="" style="endArrow=none;dashed=1;html=1;dashPattern=1 3;strokeWidth=2;rounded=0;" parent="1" source="sYYE232gGUa4oi_XJ-Jl-71" target="sYYE232gGUa4oi_XJ-Jl-69" edge="1">
          <mxGeometry width="50" height="50" relative="1" as="geometry">
            <mxPoint x="480" y="1500" as="sourcePoint" />
            <mxPoint x="690" y="1220" as="targetPoint" />
          </mxGeometry>
        </mxCell>
        <mxCell id="sYYE232gGUa4oi_XJ-Jl-100" value="&amp;lt;&amp;lt;includes&amp;gt;&amp;gt;" style="edgeLabel;html=1;align=center;verticalAlign=middle;resizable=0;points=[];" parent="sYYE232gGUa4oi_XJ-Jl-98" vertex="1" connectable="0">
          <mxGeometry x="-0.0677" y="-1" relative="1" as="geometry">
            <mxPoint as="offset" />
          </mxGeometry>
        </mxCell>
        <mxCell id="sYYE232gGUa4oi_XJ-Jl-99" value="" style="endArrow=none;dashed=1;html=1;dashPattern=1 3;strokeWidth=2;rounded=0;exitX=1;exitY=0.5;exitDx=0;exitDy=0;" parent="1" source="sYYE232gGUa4oi_XJ-Jl-70" target="sYYE232gGUa4oi_XJ-Jl-69" edge="1">
          <mxGeometry width="50" height="50" relative="1" as="geometry">
            <mxPoint x="640" y="1270" as="sourcePoint" />
            <mxPoint x="690" y="1220" as="targetPoint" />
          </mxGeometry>
        </mxCell>
        <mxCell id="sYYE232gGUa4oi_XJ-Jl-101" value="&amp;lt;&amp;lt;includes&amp;gt;&amp;gt;" style="edgeLabel;html=1;align=center;verticalAlign=middle;resizable=0;points=[];" parent="sYYE232gGUa4oi_XJ-Jl-99" vertex="1" connectable="0">
          <mxGeometry x="-0.2573" relative="1" as="geometry">
            <mxPoint y="1" as="offset" />
          </mxGeometry>
        </mxCell>
        <mxCell id="sYYE232gGUa4oi_XJ-Jl-102" value="" style="endArrow=none;html=1;rounded=0;exitX=1;exitY=0.3333333333333333;exitDx=0;exitDy=0;exitPerimeter=0;" parent="1" source="sYYE232gGUa4oi_XJ-Jl-31" target="sYYE232gGUa4oi_XJ-Jl-82" edge="1">
          <mxGeometry width="50" height="50" relative="1" as="geometry">
            <mxPoint x="640" y="1270" as="sourcePoint" />
            <mxPoint x="50" y="1579" as="targetPoint" />
          </mxGeometry>
        </mxCell>
        <mxCell id="sYYE232gGUa4oi_XJ-Jl-109" value="" style="endArrow=none;html=1;rounded=0;fontStyle=1" parent="1" target="sYYE232gGUa4oi_XJ-Jl-71" edge="1">
          <mxGeometry width="50" height="50" relative="1" as="geometry">
            <mxPoint x="-100" y="1610" as="sourcePoint" />
            <mxPoint x="359" y="1619" as="targetPoint" />
          </mxGeometry>
        </mxCell>
        <mxCell id="sYYE232gGUa4oi_XJ-Jl-110" value="" style="endArrow=none;html=1;rounded=0;fontStyle=1;exitX=0.067;exitY=0.766;exitDx=0;exitDy=0;exitPerimeter=0;entryX=1;entryY=0.3333333333333333;entryDx=0;entryDy=0;entryPerimeter=0;" parent="1" source="sYYE232gGUa4oi_XJ-Jl-70" target="sYYE232gGUa4oi_XJ-Jl-31" edge="1">
          <mxGeometry width="50" height="50" relative="1" as="geometry">
            <mxPoint x="-80" y="1610" as="sourcePoint" />
            <mxPoint x="266" y="1516" as="targetPoint" />
          </mxGeometry>
        </mxCell>
        <mxCell id="sYYE232gGUa4oi_XJ-Jl-114" value="" style="endArrow=none;dashed=1;html=1;dashPattern=1 3;strokeWidth=2;rounded=0;exitX=0.5;exitY=0;exitDx=0;exitDy=0;" parent="1" source="sYYE232gGUa4oi_XJ-Jl-25" target="sYYE232gGUa4oi_XJ-Jl-4" edge="1">
          <mxGeometry width="50" height="50" relative="1" as="geometry">
            <mxPoint x="200" y="590" as="sourcePoint" />
            <mxPoint x="690" y="470" as="targetPoint" />
          </mxGeometry>
        </mxCell>
        <mxCell id="sYYE232gGUa4oi_XJ-Jl-115" value="&amp;lt;&amp;lt;extends&amp;gt;&amp;gt;" style="edgeLabel;html=1;align=center;verticalAlign=middle;resizable=0;points=[];" parent="sYYE232gGUa4oi_XJ-Jl-114" vertex="1" connectable="0">
          <mxGeometry x="0.0108" y="-2" relative="1" as="geometry">
            <mxPoint as="offset" />
          </mxGeometry>
        </mxCell>
        <mxCell id="sYYE232gGUa4oi_XJ-Jl-117" value="" style="endArrow=none;dashed=1;html=1;dashPattern=1 3;strokeWidth=2;rounded=0;exitX=1;exitY=1;exitDx=0;exitDy=0;" parent="1" source="sYYE232gGUa4oi_XJ-Jl-25" target="sYYE232gGUa4oi_XJ-Jl-7" edge="1">
          <mxGeometry width="50" height="50" relative="1" as="geometry">
            <mxPoint x="640" y="770" as="sourcePoint" />
            <mxPoint x="690" y="720" as="targetPoint" />
          </mxGeometry>
        </mxCell>
        <mxCell id="sYYE232gGUa4oi_XJ-Jl-118" value="&amp;lt;&amp;lt;extends&amp;gt;&amp;gt;" style="edgeLabel;html=1;align=center;verticalAlign=middle;resizable=0;points=[];" parent="sYYE232gGUa4oi_XJ-Jl-117" vertex="1" connectable="0">
          <mxGeometry x="0.0522" y="2" relative="1" as="geometry">
            <mxPoint as="offset" />
          </mxGeometry>
        </mxCell>
        <mxCell id="sYYE232gGUa4oi_XJ-Jl-119" value="Acessar Financeiro" style="ellipse;whiteSpace=wrap;html=1;fillColor=#f8cecc;strokeColor=#b85450;" parent="1" vertex="1">
          <mxGeometry x="410" y="560" width="120" height="80" as="geometry" />
        </mxCell>
        <mxCell id="sYYE232gGUa4oi_XJ-Jl-121" value="" style="endArrow=none;dashed=1;html=1;dashPattern=1 3;strokeWidth=2;rounded=0;" parent="1" source="sYYE232gGUa4oi_XJ-Jl-25" target="sYYE232gGUa4oi_XJ-Jl-119" edge="1">
          <mxGeometry width="50" height="50" relative="1" as="geometry">
            <mxPoint x="640" y="650" as="sourcePoint" />
            <mxPoint x="690" y="600" as="targetPoint" />
          </mxGeometry>
        </mxCell>
        <mxCell id="sYYE232gGUa4oi_XJ-Jl-200" value="&amp;lt;&amp;lt;extends&amp;gt;&amp;gt;" style="edgeLabel;html=1;align=center;verticalAlign=middle;resizable=0;points=[];" parent="sYYE232gGUa4oi_XJ-Jl-121" vertex="1" connectable="0">
          <mxGeometry x="-0.0192" y="-1" relative="1" as="geometry">
            <mxPoint as="offset" />
          </mxGeometry>
        </mxCell>
        <mxCell id="sYYE232gGUa4oi_XJ-Jl-122" value="" style="endArrow=none;dashed=1;html=1;dashPattern=1 3;strokeWidth=2;rounded=0;entryX=1;entryY=0;entryDx=0;entryDy=0;" parent="1" source="sYYE232gGUa4oi_XJ-Jl-3" target="sYYE232gGUa4oi_XJ-Jl-119" edge="1">
          <mxGeometry width="50" height="50" relative="1" as="geometry">
            <mxPoint x="236" y="655" as="sourcePoint" />
            <mxPoint x="404" y="609" as="targetPoint" />
          </mxGeometry>
        </mxCell>
        <mxCell id="sYYE232gGUa4oi_XJ-Jl-123" value="Consultar Requerimentos Disponíveis" style="ellipse;whiteSpace=wrap;html=1;" parent="1" vertex="1">
          <mxGeometry x="200" y="1630" width="130" height="80" as="geometry" />
        </mxCell>
        <mxCell id="sYYE232gGUa4oi_XJ-Jl-124" value="Consultar Requerimentos Solicitados" style="ellipse;whiteSpace=wrap;html=1;" parent="1" vertex="1">
          <mxGeometry x="190" y="1730" width="130" height="80" as="geometry" />
        </mxCell>
        <mxCell id="sYYE232gGUa4oi_XJ-Jl-125" value="" style="endArrow=none;dashed=1;html=1;dashPattern=1 3;strokeWidth=2;rounded=0;entryX=1;entryY=0.5;entryDx=0;entryDy=0;" parent="1" source="sYYE232gGUa4oi_XJ-Jl-32" target="sYYE232gGUa4oi_XJ-Jl-123" edge="1">
          <mxGeometry width="50" height="50" relative="1" as="geometry">
            <mxPoint x="459.05116885373263" y="1700.099389387693" as="sourcePoint" />
            <mxPoint x="395" y="1573" as="targetPoint" />
          </mxGeometry>
        </mxCell>
        <mxCell id="sYYE232gGUa4oi_XJ-Jl-126" value="&amp;lt;&amp;lt;includes&amp;gt;&amp;gt;" style="edgeLabel;html=1;align=center;verticalAlign=middle;resizable=0;points=[];" parent="sYYE232gGUa4oi_XJ-Jl-125" vertex="1" connectable="0">
          <mxGeometry x="0.1602" y="-1" relative="1" as="geometry">
            <mxPoint x="1" as="offset" />
          </mxGeometry>
        </mxCell>
        <mxCell id="sYYE232gGUa4oi_XJ-Jl-127" value="" style="endArrow=none;dashed=1;html=1;dashPattern=1 3;strokeWidth=2;rounded=0;entryX=0.952;entryY=0.313;entryDx=0;entryDy=0;entryPerimeter=0;" parent="1" source="sYYE232gGUa4oi_XJ-Jl-32" target="sYYE232gGUa4oi_XJ-Jl-124" edge="1">
          <mxGeometry width="50" height="50" relative="1" as="geometry">
            <mxPoint x="474.03805922287484" y="1742.2842712474626" as="sourcePoint" />
            <mxPoint x="385" y="1700" as="targetPoint" />
          </mxGeometry>
        </mxCell>
        <mxCell id="sYYE232gGUa4oi_XJ-Jl-128" value="&amp;lt;&amp;lt;includes&amp;gt;&amp;gt;" style="edgeLabel;html=1;align=center;verticalAlign=middle;resizable=0;points=[];" parent="sYYE232gGUa4oi_XJ-Jl-127" vertex="1" connectable="0">
          <mxGeometry x="0.1602" y="-1" relative="1" as="geometry">
            <mxPoint x="1" as="offset" />
          </mxGeometry>
        </mxCell>
        <mxCell id="sYYE232gGUa4oi_XJ-Jl-129" value="" style="endArrow=none;html=1;rounded=0;exitX=1;exitY=0.3333333333333333;exitDx=0;exitDy=0;exitPerimeter=0;entryX=0;entryY=0.5;entryDx=0;entryDy=0;" parent="1" source="sYYE232gGUa4oi_XJ-Jl-31" target="sYYE232gGUa4oi_XJ-Jl-123" edge="1">
          <mxGeometry width="50" height="50" relative="1" as="geometry">
            <mxPoint x="640" y="1520" as="sourcePoint" />
            <mxPoint x="690" y="1470" as="targetPoint" />
          </mxGeometry>
        </mxCell>
        <mxCell id="sYYE232gGUa4oi_XJ-Jl-130" value="" style="endArrow=none;html=1;rounded=0;entryX=0;entryY=0.5;entryDx=0;entryDy=0;" parent="1" target="sYYE232gGUa4oi_XJ-Jl-124" edge="1">
          <mxGeometry width="50" height="50" relative="1" as="geometry">
            <mxPoint x="-100" y="1610" as="sourcePoint" />
            <mxPoint x="245" y="1690" as="targetPoint" />
          </mxGeometry>
        </mxCell>
        <mxCell id="sYYE232gGUa4oi_XJ-Jl-131" value="&lt;h2&gt;Secretaria/Central do Aluno&lt;/h2&gt;" style="text;html=1;align=center;verticalAlign=middle;resizable=0;points=[];autosize=1;strokeColor=none;fillColor=none;" parent="1" vertex="1">
          <mxGeometry x="435" y="1280" width="260" height="60" as="geometry" />
        </mxCell>
        <mxCell id="sYYE232gGUa4oi_XJ-Jl-132" value="Fazer Rematrícula" style="ellipse;whiteSpace=wrap;html=1;" parent="1" vertex="1">
          <mxGeometry x="210" y="460" width="120" height="80" as="geometry" />
        </mxCell>
        <mxCell id="sYYE232gGUa4oi_XJ-Jl-133" value="" style="endArrow=none;dashed=1;html=1;dashPattern=1 3;strokeWidth=2;rounded=0;exitX=1;exitY=0.5;exitDx=0;exitDy=0;" parent="1" source="sYYE232gGUa4oi_XJ-Jl-132" target="sYYE232gGUa4oi_XJ-Jl-3" edge="1">
          <mxGeometry width="50" height="50" relative="1" as="geometry">
            <mxPoint x="270" y="594" as="sourcePoint" />
            <mxPoint x="611" y="387" as="targetPoint" />
          </mxGeometry>
        </mxCell>
        <mxCell id="sYYE232gGUa4oi_XJ-Jl-134" value="&amp;lt;&amp;lt;includes&amp;gt;&amp;gt;" style="edgeLabel;html=1;align=center;verticalAlign=middle;resizable=0;points=[];" parent="sYYE232gGUa4oi_XJ-Jl-133" vertex="1" connectable="0">
          <mxGeometry x="-0.1817" y="-1" relative="1" as="geometry">
            <mxPoint as="offset" />
          </mxGeometry>
        </mxCell>
        <mxCell id="sYYE232gGUa4oi_XJ-Jl-135" value="" style="endArrow=none;html=1;rounded=0;exitX=1;exitY=0.3333333333333333;exitDx=0;exitDy=0;exitPerimeter=0;" parent="1" source="sYYE232gGUa4oi_XJ-Jl-1" target="sYYE232gGUa4oi_XJ-Jl-132" edge="1">
          <mxGeometry width="50" height="50" relative="1" as="geometry">
            <mxPoint x="-70" y="577" as="sourcePoint" />
            <mxPoint x="150" y="591" as="targetPoint" />
          </mxGeometry>
        </mxCell>
        <mxCell id="sYYE232gGUa4oi_XJ-Jl-136" value="" style="rounded=1;whiteSpace=wrap;html=1;" parent="1" vertex="1">
          <mxGeometry x="-50" y="1920" width="1100" height="597.5" as="geometry" />
        </mxCell>
        <mxCell id="sYYE232gGUa4oi_XJ-Jl-138" value="Acessar Financeiro" style="ellipse;whiteSpace=wrap;html=1;fillColor=#f8cecc;strokeColor=#b85450;" parent="1" vertex="1">
          <mxGeometry x="400" y="2060" width="120" height="80" as="geometry" />
        </mxCell>
        <mxCell id="sYYE232gGUa4oi_XJ-Jl-139" value="&lt;div&gt;&lt;span style=&quot;background-color: initial;&quot;&gt;Fazer login&lt;/span&gt;&lt;br&gt;&lt;/div&gt;" style="ellipse;whiteSpace=wrap;html=1;fillColor=#dae8fc;strokeColor=#6c8ebf;" parent="1" vertex="1">
          <mxGeometry x="550" y="2220" width="120" height="80" as="geometry" />
        </mxCell>
        <mxCell id="sYYE232gGUa4oi_XJ-Jl-140" value="" style="endArrow=none;dashed=1;html=1;dashPattern=1 3;strokeWidth=2;rounded=0;" parent="1" source="sYYE232gGUa4oi_XJ-Jl-139" target="sYYE232gGUa4oi_XJ-Jl-138" edge="1">
          <mxGeometry width="50" height="50" relative="1" as="geometry">
            <mxPoint x="640" y="2000" as="sourcePoint" />
            <mxPoint x="690" y="1950" as="targetPoint" />
          </mxGeometry>
        </mxCell>
        <mxCell id="sYYE232gGUa4oi_XJ-Jl-141" value="&amp;lt;&amp;lt;includes&amp;gt;&amp;gt;" style="edgeLabel;html=1;align=center;verticalAlign=middle;resizable=0;points=[];" parent="sYYE232gGUa4oi_XJ-Jl-140" vertex="1" connectable="0">
          <mxGeometry x="0.0269" y="5" relative="1" as="geometry">
            <mxPoint as="offset" />
          </mxGeometry>
        </mxCell>
        <mxCell id="sYYE232gGUa4oi_XJ-Jl-146" value="Actor" style="shape=umlActor;verticalLabelPosition=bottom;verticalAlign=top;html=1;outlineConnect=0;" parent="1" vertex="1">
          <mxGeometry x="-170" y="2110" width="90" height="120" as="geometry" />
        </mxCell>
        <mxCell id="sYYE232gGUa4oi_XJ-Jl-147" value="Consultar Boletos pagos" style="ellipse;whiteSpace=wrap;html=1;" parent="1" vertex="1">
          <mxGeometry x="140" y="1940" width="130" height="80" as="geometry" />
        </mxCell>
        <mxCell id="sYYE232gGUa4oi_XJ-Jl-148" value="Consultar Boletos a vencer" style="ellipse;whiteSpace=wrap;html=1;" parent="1" vertex="1">
          <mxGeometry x="160" y="2030" width="130" height="80" as="geometry" />
        </mxCell>
        <mxCell id="sYYE232gGUa4oi_XJ-Jl-149" value="Contatar Financeiro" style="ellipse;whiteSpace=wrap;html=1;" parent="1" vertex="1">
          <mxGeometry x="160" y="2120" width="130" height="80" as="geometry" />
        </mxCell>
        <mxCell id="sYYE232gGUa4oi_XJ-Jl-151" value="" style="endArrow=none;dashed=1;html=1;dashPattern=1 3;strokeWidth=2;rounded=0;entryX=0.962;entryY=0.359;entryDx=0;entryDy=0;entryPerimeter=0;" parent="1" source="sYYE232gGUa4oi_XJ-Jl-138" target="sYYE232gGUa4oi_XJ-Jl-147" edge="1">
          <mxGeometry width="50" height="50" relative="1" as="geometry">
            <mxPoint x="405" y="2030" as="sourcePoint" />
            <mxPoint x="245" y="2043" as="targetPoint" />
          </mxGeometry>
        </mxCell>
        <mxCell id="sYYE232gGUa4oi_XJ-Jl-152" value="&amp;lt;&amp;lt;includes&amp;gt;&amp;gt;" style="edgeLabel;html=1;align=center;verticalAlign=middle;resizable=0;points=[];" parent="sYYE232gGUa4oi_XJ-Jl-151" vertex="1" connectable="0">
          <mxGeometry x="0.1602" y="-1" relative="1" as="geometry">
            <mxPoint x="1" as="offset" />
          </mxGeometry>
        </mxCell>
        <mxCell id="sYYE232gGUa4oi_XJ-Jl-153" value="" style="endArrow=none;dashed=1;html=1;dashPattern=1 3;strokeWidth=2;rounded=0;" parent="1" source="sYYE232gGUa4oi_XJ-Jl-138" target="sYYE232gGUa4oi_XJ-Jl-148" edge="1">
          <mxGeometry width="50" height="50" relative="1" as="geometry">
            <mxPoint x="435" y="2198" as="sourcePoint" />
            <mxPoint x="262" y="2160" as="targetPoint" />
          </mxGeometry>
        </mxCell>
        <mxCell id="sYYE232gGUa4oi_XJ-Jl-154" value="&amp;lt;&amp;lt;includes&amp;gt;&amp;gt;" style="edgeLabel;html=1;align=center;verticalAlign=middle;resizable=0;points=[];" parent="sYYE232gGUa4oi_XJ-Jl-153" vertex="1" connectable="0">
          <mxGeometry x="0.1602" y="-1" relative="1" as="geometry">
            <mxPoint x="1" as="offset" />
          </mxGeometry>
        </mxCell>
        <mxCell id="sYYE232gGUa4oi_XJ-Jl-155" value="" style="endArrow=none;dashed=1;html=1;dashPattern=1 3;strokeWidth=2;rounded=0;entryX=0.933;entryY=0.328;entryDx=0;entryDy=0;entryPerimeter=0;" parent="1" source="sYYE232gGUa4oi_XJ-Jl-138" target="sYYE232gGUa4oi_XJ-Jl-149" edge="1">
          <mxGeometry width="50" height="50" relative="1" as="geometry">
            <mxPoint x="417" y="2187" as="sourcePoint" />
            <mxPoint x="240" y="2230" as="targetPoint" />
          </mxGeometry>
        </mxCell>
        <mxCell id="sYYE232gGUa4oi_XJ-Jl-156" value="&amp;lt;&amp;lt;includes&amp;gt;&amp;gt;" style="edgeLabel;html=1;align=center;verticalAlign=middle;resizable=0;points=[];" parent="sYYE232gGUa4oi_XJ-Jl-155" vertex="1" connectable="0">
          <mxGeometry x="0.1602" y="-1" relative="1" as="geometry">
            <mxPoint x="1" as="offset" />
          </mxGeometry>
        </mxCell>
        <mxCell id="sYYE232gGUa4oi_XJ-Jl-158" value="" style="endArrow=none;html=1;rounded=0;exitX=1;exitY=0.3333333333333333;exitDx=0;exitDy=0;exitPerimeter=0;" parent="1" source="sYYE232gGUa4oi_XJ-Jl-146" target="sYYE232gGUa4oi_XJ-Jl-147" edge="1">
          <mxGeometry width="50" height="50" relative="1" as="geometry">
            <mxPoint x="640" y="2000" as="sourcePoint" />
            <mxPoint x="690" y="1950" as="targetPoint" />
          </mxGeometry>
        </mxCell>
        <mxCell id="sYYE232gGUa4oi_XJ-Jl-159" value="" style="endArrow=none;html=1;rounded=0;exitX=1;exitY=0.3333333333333333;exitDx=0;exitDy=0;exitPerimeter=0;" parent="1" source="sYYE232gGUa4oi_XJ-Jl-146" target="sYYE232gGUa4oi_XJ-Jl-148" edge="1">
          <mxGeometry width="50" height="50" relative="1" as="geometry">
            <mxPoint x="-70" y="2160" as="sourcePoint" />
            <mxPoint x="148" y="2089" as="targetPoint" />
          </mxGeometry>
        </mxCell>
        <mxCell id="sYYE232gGUa4oi_XJ-Jl-160" value="" style="endArrow=none;html=1;rounded=0;exitX=1;exitY=0.3333333333333333;exitDx=0;exitDy=0;exitPerimeter=0;entryX=0;entryY=0.5;entryDx=0;entryDy=0;" parent="1" source="sYYE232gGUa4oi_XJ-Jl-146" target="sYYE232gGUa4oi_XJ-Jl-149" edge="1">
          <mxGeometry width="50" height="50" relative="1" as="geometry">
            <mxPoint x="-70" y="2160" as="sourcePoint" />
            <mxPoint x="150" y="2168" as="targetPoint" />
          </mxGeometry>
        </mxCell>
        <mxCell id="sYYE232gGUa4oi_XJ-Jl-161" value="Acessar Avaliação Institucional" style="ellipse;whiteSpace=wrap;html=1;" parent="1" vertex="1">
          <mxGeometry x="280" y="2210" width="130" height="80" as="geometry" />
        </mxCell>
        <mxCell id="sYYE232gGUa4oi_XJ-Jl-162" value="" style="endArrow=none;dashed=1;html=1;dashPattern=1 3;strokeWidth=2;rounded=0;exitX=0;exitY=0.5;exitDx=0;exitDy=0;entryX=1;entryY=0.5;entryDx=0;entryDy=0;" parent="1" source="sYYE232gGUa4oi_XJ-Jl-139" target="sYYE232gGUa4oi_XJ-Jl-161" edge="1">
          <mxGeometry width="50" height="50" relative="1" as="geometry">
            <mxPoint x="481" y="2268" as="sourcePoint" />
            <mxPoint x="473" y="2150" as="targetPoint" />
          </mxGeometry>
        </mxCell>
        <mxCell id="sYYE232gGUa4oi_XJ-Jl-163" value="&amp;lt;&amp;lt;includes&amp;gt;&amp;gt;" style="edgeLabel;html=1;align=center;verticalAlign=middle;resizable=0;points=[];" parent="sYYE232gGUa4oi_XJ-Jl-162" vertex="1" connectable="0">
          <mxGeometry x="0.0269" y="5" relative="1" as="geometry">
            <mxPoint as="offset" />
          </mxGeometry>
        </mxCell>
        <mxCell id="sYYE232gGUa4oi_XJ-Jl-165" value="Avaliar Infraestrutura" style="ellipse;whiteSpace=wrap;html=1;" parent="1" vertex="1">
          <mxGeometry x="40" y="2200" width="130" height="80" as="geometry" />
        </mxCell>
        <mxCell id="sYYE232gGUa4oi_XJ-Jl-166" value="Avaliar Docentes" style="ellipse;whiteSpace=wrap;html=1;" parent="1" vertex="1">
          <mxGeometry x="80" y="2300" width="130" height="80" as="geometry" />
        </mxCell>
        <mxCell id="sYYE232gGUa4oi_XJ-Jl-167" value="" style="endArrow=none;dashed=1;html=1;dashPattern=1 3;strokeWidth=2;rounded=0;exitX=0;exitY=1;exitDx=0;exitDy=0;" parent="1" source="sYYE232gGUa4oi_XJ-Jl-161" target="sYYE232gGUa4oi_XJ-Jl-166" edge="1">
          <mxGeometry width="50" height="50" relative="1" as="geometry">
            <mxPoint x="414" y="2124" as="sourcePoint" />
            <mxPoint x="291" y="2156" as="targetPoint" />
          </mxGeometry>
        </mxCell>
        <mxCell id="sYYE232gGUa4oi_XJ-Jl-168" value="&amp;lt;&amp;lt;includes&amp;gt;&amp;gt;" style="edgeLabel;html=1;align=center;verticalAlign=middle;resizable=0;points=[];" parent="sYYE232gGUa4oi_XJ-Jl-167" vertex="1" connectable="0">
          <mxGeometry x="0.1602" y="-1" relative="1" as="geometry">
            <mxPoint x="1" as="offset" />
          </mxGeometry>
        </mxCell>
        <mxCell id="sYYE232gGUa4oi_XJ-Jl-169" value="" style="endArrow=none;dashed=1;html=1;dashPattern=1 3;strokeWidth=2;rounded=0;entryX=0.971;entryY=0.609;entryDx=0;entryDy=0;entryPerimeter=0;" parent="1" source="sYYE232gGUa4oi_XJ-Jl-161" target="sYYE232gGUa4oi_XJ-Jl-165" edge="1">
          <mxGeometry width="50" height="50" relative="1" as="geometry">
            <mxPoint x="189" y="2318" as="sourcePoint" />
            <mxPoint x="147" y="2327" as="targetPoint" />
          </mxGeometry>
        </mxCell>
        <mxCell id="sYYE232gGUa4oi_XJ-Jl-170" value="&amp;lt;&amp;lt;includes&amp;gt;&amp;gt;" style="edgeLabel;html=1;align=center;verticalAlign=middle;resizable=0;points=[];" parent="sYYE232gGUa4oi_XJ-Jl-169" vertex="1" connectable="0">
          <mxGeometry x="0.1602" y="-1" relative="1" as="geometry">
            <mxPoint x="1" as="offset" />
          </mxGeometry>
        </mxCell>
        <mxCell id="sYYE232gGUa4oi_XJ-Jl-171" value="" style="endArrow=none;html=1;rounded=0;exitX=1;exitY=0.3333333333333333;exitDx=0;exitDy=0;exitPerimeter=0;entryX=0;entryY=0.5;entryDx=0;entryDy=0;" parent="1" source="sYYE232gGUa4oi_XJ-Jl-146" target="sYYE232gGUa4oi_XJ-Jl-165" edge="1">
          <mxGeometry width="50" height="50" relative="1" as="geometry">
            <mxPoint x="640" y="2000" as="sourcePoint" />
            <mxPoint x="690" y="1950" as="targetPoint" />
          </mxGeometry>
        </mxCell>
        <mxCell id="sYYE232gGUa4oi_XJ-Jl-172" value="" style="endArrow=none;html=1;rounded=0;exitX=1;exitY=0.3333333333333333;exitDx=0;exitDy=0;exitPerimeter=0;entryX=0;entryY=0.5;entryDx=0;entryDy=0;" parent="1" source="sYYE232gGUa4oi_XJ-Jl-146" target="sYYE232gGUa4oi_XJ-Jl-166" edge="1">
          <mxGeometry width="50" height="50" relative="1" as="geometry">
            <mxPoint x="-140" y="2240" as="sourcePoint" />
            <mxPoint x="-50" y="2320" as="targetPoint" />
          </mxGeometry>
        </mxCell>
        <mxCell id="sYYE232gGUa4oi_XJ-Jl-173" value="Emitir Relatório" style="ellipse;whiteSpace=wrap;html=1;" parent="1" vertex="1">
          <mxGeometry x="80" y="2390" width="130" height="80" as="geometry" />
        </mxCell>
        <mxCell id="sYYE232gGUa4oi_XJ-Jl-174" value="" style="endArrow=none;dashed=1;html=1;dashPattern=1 3;strokeWidth=2;rounded=0;exitX=0;exitY=1;exitDx=0;exitDy=0;entryX=1;entryY=0.5;entryDx=0;entryDy=0;" parent="1" source="sYYE232gGUa4oi_XJ-Jl-139" target="sYYE232gGUa4oi_XJ-Jl-173" edge="1">
          <mxGeometry width="50" height="50" relative="1" as="geometry">
            <mxPoint x="475" y="2260" as="sourcePoint" />
            <mxPoint x="380" y="2280" as="targetPoint" />
          </mxGeometry>
        </mxCell>
        <mxCell id="sYYE232gGUa4oi_XJ-Jl-175" value="&amp;lt;&amp;lt;includes&amp;gt;&amp;gt;" style="edgeLabel;html=1;align=center;verticalAlign=middle;resizable=0;points=[];" parent="sYYE232gGUa4oi_XJ-Jl-174" vertex="1" connectable="0">
          <mxGeometry x="0.0269" y="5" relative="1" as="geometry">
            <mxPoint as="offset" />
          </mxGeometry>
        </mxCell>
        <mxCell id="sYYE232gGUa4oi_XJ-Jl-176" value="" style="endArrow=none;html=1;rounded=0;exitX=1;exitY=0.3333333333333333;exitDx=0;exitDy=0;exitPerimeter=0;entryX=0;entryY=0.5;entryDx=0;entryDy=0;" parent="1" source="sYYE232gGUa4oi_XJ-Jl-146" target="sYYE232gGUa4oi_XJ-Jl-173" edge="1">
          <mxGeometry width="50" height="50" relative="1" as="geometry">
            <mxPoint x="640" y="2250" as="sourcePoint" />
            <mxPoint x="690" y="2200" as="targetPoint" />
          </mxGeometry>
        </mxCell>
        <mxCell id="sYYE232gGUa4oi_XJ-Jl-177" value="&lt;h2&gt;Financeiro/Avaliação Institucional/Relatórios&lt;/h2&gt;" style="text;html=1;align=center;verticalAlign=middle;resizable=0;points=[];autosize=1;strokeColor=none;fillColor=none;" parent="1" vertex="1">
          <mxGeometry x="355" y="1930" width="410" height="60" as="geometry" />
        </mxCell>
        <mxCell id="sYYE232gGUa4oi_XJ-Jl-178" value="" style="rounded=1;whiteSpace=wrap;html=1;" parent="1" vertex="1">
          <mxGeometry x="-50" y="2590" width="1100" height="930" as="geometry" />
        </mxCell>
        <mxCell id="sYYE232gGUa4oi_XJ-Jl-179" value="&lt;h2&gt;Outros Serviços pt. 1&lt;/h2&gt;" style="text;html=1;align=center;verticalAlign=middle;resizable=0;points=[];autosize=1;strokeColor=none;fillColor=none;" parent="1" vertex="1">
          <mxGeometry x="415" y="2600" width="200" height="60" as="geometry" />
        </mxCell>
        <mxCell id="sYYE232gGUa4oi_XJ-Jl-180" value="Actor" style="shape=umlActor;verticalLabelPosition=bottom;verticalAlign=top;html=1;outlineConnect=0;" parent="1" vertex="1">
          <mxGeometry x="-170" y="2890" width="90" height="120" as="geometry" />
        </mxCell>
        <mxCell id="sYYE232gGUa4oi_XJ-Jl-181" value="&lt;div&gt;&lt;span style=&quot;background-color: initial;&quot;&gt;Fazer login&lt;/span&gt;&lt;br&gt;&lt;/div&gt;" style="ellipse;whiteSpace=wrap;html=1;fillColor=#dae8fc;strokeColor=#6c8ebf;" parent="1" vertex="1">
          <mxGeometry x="670" y="3000" width="120" height="80" as="geometry" />
        </mxCell>
        <mxCell id="sYYE232gGUa4oi_XJ-Jl-182" value="" style="endArrow=none;dashed=1;html=1;dashPattern=1 3;strokeWidth=2;rounded=0;" parent="1" source="sYYE232gGUa4oi_XJ-Jl-181" target="sYYE232gGUa4oi_XJ-Jl-184" edge="1">
          <mxGeometry width="50" height="50" relative="1" as="geometry">
            <mxPoint x="687" y="2930" as="sourcePoint" />
            <mxPoint x="414" y="3082" as="targetPoint" />
          </mxGeometry>
        </mxCell>
        <mxCell id="sYYE232gGUa4oi_XJ-Jl-183" value="&amp;lt;&amp;lt;includes&amp;gt;&amp;gt;" style="edgeLabel;html=1;align=center;verticalAlign=middle;resizable=0;points=[];" parent="sYYE232gGUa4oi_XJ-Jl-182" vertex="1" connectable="0">
          <mxGeometry x="0.0269" y="5" relative="1" as="geometry">
            <mxPoint as="offset" />
          </mxGeometry>
        </mxCell>
        <mxCell id="sYYE232gGUa4oi_XJ-Jl-184" value="Acessar Outros Serviços" style="ellipse;whiteSpace=wrap;html=1;fillColor=#d5e8d4;strokeColor=#82b366;" parent="1" vertex="1">
          <mxGeometry x="370" y="3010" width="130" height="80" as="geometry" />
        </mxCell>
        <mxCell id="sYYE232gGUa4oi_XJ-Jl-185" value="Consultar Web E-mail&lt;span style=&quot;color: rgba(0, 0, 0, 0); font-family: monospace; font-size: 0px; text-align: start; text-wrap: nowrap;&quot;&gt;%3CmxGraphModel%3E%3Croot%3E%3CmxCell%20id%3D%220%22%2F%3E%3CmxCell%20id%3D%221%22%20parent%3D%220%22%2F%3E%3CmxCell%20id%3D%222%22%20value%3D%22Emitir%20Relat%C3%B3rio%22%20style%3D%22ellipse%3BwhiteSpace%3Dwrap%3Bhtml%3D1%3B%22%20vertex%3D%221%22%20parent%3D%221%22%3E%3CmxGeometry%20x%3D%2280%22%20y%3D%222390%22%20width%3D%22130%22%20height%3D%2280%22%20as%3D%22geometry%22%2F%3E%3C%2FmxCell%3E%3C%2Froot%3E%3C%2FmxGraphModel%3E&lt;/span&gt;&amp;nbsp;" style="ellipse;whiteSpace=wrap;html=1;" parent="1" vertex="1">
          <mxGeometry x="90" y="2610" width="130" height="80" as="geometry" />
        </mxCell>
        <mxCell id="sYYE232gGUa4oi_XJ-Jl-186" value="Consultar&amp;nbsp;&lt;span style=&quot;background-color: initial; text-wrap: nowrap; color: rgba(0, 0, 0, 0); font-family: monospace; font-size: 0px; text-align: start;&quot;&gt;%3CmxGraphModel%3E%3Croot%3E%3CmxCell%20id%3D%220%22%2F%3E%3CmxCell%20id%3D%221%22%20parent%3D%220%22%2F%3E%3CmxCell%20id%3D%222%22%20value%3D%22Emitir%20Relat%C3%B3rio%22%20style%3D%22ellipse%3BwhiteSpace%3Dwrap%3Bhtml%3D1%3B%22%20vertex%3D%221%22%20parent%3D%221%22%3E%3CmxGeometry%20x%3D%2280%22%20y%3D%222390%22%20width%3D%22130%22%20height%3D%2280%22%20as%3D%22geometry%22%2F%3E%3C%2FmxCell%3E%3C%2Froot%3E%3C%2FmxGraphModel%3E&lt;/span&gt;&lt;span style=&quot;background-color: initial;&quot;&gt;&amp;nbsp;Alteração de Senha&lt;/span&gt;" style="ellipse;whiteSpace=wrap;html=1;" parent="1" vertex="1">
          <mxGeometry x="95" y="2690" width="130" height="80" as="geometry" />
        </mxCell>
        <mxCell id="sYYE232gGUa4oi_XJ-Jl-187" value="Consultar Calendário Acadêmico&lt;span style=&quot;background-color: initial; text-wrap: nowrap; color: rgba(0, 0, 0, 0); font-family: monospace; font-size: 0px; text-align: start;&quot;&gt;%3CmxGraphModel%3E%3Croot%3E%3CmxCell%20id%3D%220%22%2F%3E%3CmxCell%20id%3D%221%22%20parent%3D%220%22%2F%3E%3CmxCell%20id%3D%222%22%20value%3D%22Emitir%20Relat%C3%B3rio%22%20style%3D%22ellipse%3BwhiteSpace%3Dwrap%3Bhtml%3D1%3B%22%20vertex%3D%221%22%20parent%3D%221%22%3E%3CmxGeometry%20x%3D%2280%22%20y%3D%222390%22%20width%3D%22130%22%20height%3D%2280%22%20as%3D%22geometry%22%2F%3E%3C%2FmxCell%3E%3C%2Froot%3E%3C%2FmxGraphModel%3EBC&lt;/span&gt;" style="ellipse;whiteSpace=wrap;html=1;" parent="1" vertex="1">
          <mxGeometry x="120" y="3020" width="130" height="80" as="geometry" />
        </mxCell>
        <mxCell id="sYYE232gGUa4oi_XJ-Jl-189" value="Consultar Ambiente AVA&lt;span style=&quot;background-color: initial; text-wrap: nowrap; color: rgba(0, 0, 0, 0); font-family: monospace; font-size: 0px; text-align: start;&quot;&gt;%3CmxGraphModel%3E%3Croot%3E%3CmxCell%20id%3D%220%22%2F%3E%3CmxCell%20id%3D%221%22%20parent%3D%220%22%2F%3E%3CmxCell%20id%3D%222%22%20value%3D%22Emitir%20Relat%C3%B3rio%22%20style%3D%22ellipse%3BwhiteSpace%3Dwrap%3Bhtml%3D1%3B%22%20vertex%3D%221%22%20parent%3D%221%22%3E%3CmxGeometry%20x%3D%2280%22%20y%3D%222390%22%20width%3D%22130%22%20height%3D%2280%22%20as%3D%22geometry%22%2F%3E%3C%2FmxCell%3E%3C%2Froot%3E%3C%2FmxGraphModel%3E&lt;/span&gt;&lt;span style=&quot;background-color: initial;&quot;&gt;&amp;nbsp;&lt;/span&gt;" style="ellipse;whiteSpace=wrap;html=1;" parent="1" vertex="1">
          <mxGeometry x="135" y="2770" width="130" height="80" as="geometry" />
        </mxCell>
        <mxCell id="sYYE232gGUa4oi_XJ-Jl-190" value="Consultar Ouvidoria&lt;span style=&quot;background-color: initial; text-wrap: nowrap; color: rgba(0, 0, 0, 0); font-family: monospace; font-size: 0px; text-align: start;&quot;&gt;%3CmxGraphModel%3E%3Croot%3E%3CmxCell%20id%3D%220%22%2F%3E%3CmxCell%20id%3D%221%22%20parent%3D%220%22%2F%3E%3CmxCell%20id%3D%222%22%20value%3D%22Emitir%20Relat%C3%B3rio%22%20style%3D%22ellipse%3BwhiteSpace%3Dwrap%3Bhtml%3D1%3B%22%20vertex%3D%221%22%20parent%3D%221%22%3E%3CmxGeometry%20x%3D%2280%22%20y%3D%222390%22%20width%3D%22130%22%20height%3D%2280%22%20as%3D%22geometry%22%2F%3E%3C%2FmxCell%3E%3C%2Froot%3E%3C%2FmxGraphModel%3E&lt;/span&gt;" style="ellipse;whiteSpace=wrap;html=1;" parent="1" vertex="1">
          <mxGeometry x="70" y="3410" width="130" height="80" as="geometry" />
        </mxCell>
        <mxCell id="sYYE232gGUa4oi_XJ-Jl-191" value="Consultar Biblioteca&lt;span style=&quot;background-color: initial; text-wrap: nowrap; color: rgba(0, 0, 0, 0); font-family: monospace; font-size: 0px; text-align: start;&quot;&gt;%3CmxGraphModel%3E%3Croot%3E%3CmxCell%20id%3D%220%22%2F%3E%3CmxCell%20id%3D%221%22%20parent%3D%220%22%2F%3E%3CmxCell%20id%3D%222%22%20value%3D%22Emitir%20Relat%C3%B3rio%22%20style%3D%22ellipse%3BwhiteSpace%3Dwrap%3Bhtml%3D1%3B%22%20vertex%3D%221%22%20parent%3D%221%22%3E%3CmxGeometry%20x%3D%2280%22%20y%3D%222390%22%20width%3D%22130%22%20height%3D%2280%22%20as%3D%22geometry%22%2F%3E%3C%2FmxCell%3E%3C%2Froot%3E%3C%2FmxGraphModel%3E&lt;/span&gt;&lt;span style=&quot;background-color: initial;&quot;&gt;&amp;nbsp;&lt;/span&gt;" style="ellipse;whiteSpace=wrap;html=1;" parent="1" vertex="1">
          <mxGeometry x="60" y="2850" width="130" height="80" as="geometry" />
        </mxCell>
        <mxCell id="sYYE232gGUa4oi_XJ-Jl-192" value="Consultar Salas&lt;span style=&quot;background-color: initial; text-wrap: nowrap; color: rgba(0, 0, 0, 0); font-family: monospace; font-size: 0px; text-align: start;&quot;&gt;%3CmxGraphModel%3E%3Croot%3E%3CmxCell%20id%3D%220%22%2F%3E%3CmxCell%20id%3D%221%22%20parent%3D%220%22%2F%3E%3CmxCell%20id%3D%222%22%20value%3D%22Emitir%20Relat%C3%B3rio%22%20style%3D%22ellipse%3BwhiteSpace%3Dwrap%3Bhtml%3D1%3B%22%20vertex%3D%221%22%20parent%3D%221%22%3E%3CmxGeometry%20x%3D%2280%22%20y%3D%222390%22%20width%3D%22130%22%20height%3D%2280%22%20as%3D%22geometry%22%2F%3E%3C%2FmxCell%3E%3C%2Froot%3E%3C%2FmxGraphModel%3E&lt;/span&gt;&lt;span style=&quot;background-color: initial;&quot;&gt;&amp;nbsp;&lt;/span&gt;" style="ellipse;whiteSpace=wrap;html=1;" parent="1" vertex="1">
          <mxGeometry x="80" y="3100" width="130" height="80" as="geometry" />
        </mxCell>
        <mxCell id="sYYE232gGUa4oi_XJ-Jl-193" value="Consultar Documentos Institucionais&lt;span style=&quot;background-color: initial; text-wrap: nowrap; color: rgba(0, 0, 0, 0); font-family: monospace; font-size: 0px; text-align: start;&quot;&gt;%3CmxGraphModel%3E%3Croot%3E%3CmxCell%20id%3D%220%22%2F%3E%3CmxCell%20id%3D%221%22%20parent%3D%220%22%2F%3E%3CmxCell%20id%3D%222%22%20value%3D%22Emitir%20Relat%C3%B3rio%22%20style%3D%22ellipse%3BwhiteSpace%3Dwrap%3Bhtml%3D1%3B%22%20vertex%3D%221%22%20parent%3D%221%22%3E%3CmxGeometry%20x%3D%2280%22%20y%3D%222390%22%20width%3D%22130%22%20height%3D%2280%22%20as%3D%22geometry%22%2F%3E%3C%2FmxCell%3E%3C%2Froot%3E%3C%2FmxGraphModel%3E&lt;/span&gt;&lt;span style=&quot;background-color: initial;&quot;&gt;&amp;nbsp;&lt;/span&gt;" style="ellipse;whiteSpace=wrap;html=1;" parent="1" vertex="1">
          <mxGeometry x="40" y="3190" width="130" height="80" as="geometry" />
        </mxCell>
        <mxCell id="sYYE232gGUa4oi_XJ-Jl-196" value="Consultar&amp;nbsp;&lt;span style=&quot;background-color: initial; text-wrap: nowrap; color: rgba(0, 0, 0, 0); font-family: monospace; font-size: 0px; text-align: start;&quot;&gt;%3CmxGraphModel%3E%3Croot%3E%3CmxCell%20id%3D%220%22%2F%3E%3CmxCell%20id%3D%221%22%20parent%3D%220%22%2F%3E%3CmxCell%20id%3D%222%22%20value%3D%22Emitir%20Relat%C3%B3rio%22%20style%3D%22ellipse%3BwhiteSpace%3Dwrap%3Bhtml%3D1%3B%22%20vertex%3D%221%22%20parent%3D%221%22%3E%3CmxGeometry%20x%3D%2280%22%20y%3D%222390%22%20width%3D%22130%22%20height%3D%2280%22%20as%3D%22geometry%22%2F%3E%3C%2FmxCell%3E%3C%2Froot%3E%3C%2FmxGraphModel%3E&lt;/span&gt;&lt;span style=&quot;background-color: initial;&quot;&gt;Formatura&lt;/span&gt;" style="ellipse;whiteSpace=wrap;html=1;" parent="1" vertex="1">
          <mxGeometry x="50" y="3280" width="130" height="80" as="geometry" />
        </mxCell>
        <mxCell id="sYYE232gGUa4oi_XJ-Jl-198" value="" style="endArrow=none;dashed=1;html=1;dashPattern=1 3;strokeWidth=2;rounded=0;" parent="1" source="sYYE232gGUa4oi_XJ-Jl-32" target="sYYE232gGUa4oi_XJ-Jl-82" edge="1">
          <mxGeometry width="50" height="50" relative="1" as="geometry">
            <mxPoint x="659" y="1663" as="sourcePoint" />
            <mxPoint x="450" y="1480" as="targetPoint" />
          </mxGeometry>
        </mxCell>
        <mxCell id="sYYE232gGUa4oi_XJ-Jl-199" value="&amp;lt;&amp;lt;includes&amp;gt;&amp;gt;" style="edgeLabel;html=1;align=center;verticalAlign=middle;resizable=0;points=[];" parent="sYYE232gGUa4oi_XJ-Jl-198" vertex="1" connectable="0">
          <mxGeometry x="0.0504" y="2" relative="1" as="geometry">
            <mxPoint as="offset" />
          </mxGeometry>
        </mxCell>
        <mxCell id="sYYE232gGUa4oi_XJ-Jl-201" value="Consultar Biblioteca&lt;span style=&quot;background-color: initial; text-wrap: nowrap; color: rgba(0, 0, 0, 0); font-family: monospace; font-size: 0px; text-align: start;&quot;&gt;%3CmxGraphModel%3E%3Croot%3E%3CmxCell%20id%3D%220%22%2F%3E%3CmxCell%20id%3D%221%22%20parent%3D%220%22%2F%3E%3CmxCell%20id%3D%222%22%20value%3D%22Emitir%20Relat%C3%B3rio%22%20style%3D%22ellipse%3BwhiteSpace%3Dwrap%3Bhtml%3D1%3B%22%20vertex%3D%221%22%20parent%3D%221%22%3E%3CmxGeometry%20x%3D%2280%22%20y%3D%222390%22%20width%3D%22130%22%20height%3D%2280%22%20as%3D%22geometry%22%2F%3E%3C%2FmxCell%3E%3C%2Froot%3E%3C%2FmxGraphModel%3E&lt;/span&gt;&lt;span style=&quot;background-color: initial;&quot;&gt;&amp;nbsp;Virtual&lt;/span&gt;" style="ellipse;whiteSpace=wrap;html=1;" parent="1" vertex="1">
          <mxGeometry x="80" y="2940" width="130" height="80" as="geometry" />
        </mxCell>
        <mxCell id="sYYE232gGUa4oi_XJ-Jl-202" value="" style="endArrow=none;html=1;rounded=0;entryX=0.042;entryY=0.688;entryDx=0;entryDy=0;entryPerimeter=0;" parent="1" target="sYYE232gGUa4oi_XJ-Jl-11" edge="1">
          <mxGeometry width="50" height="50" relative="1" as="geometry">
            <mxPoint x="-80" y="570" as="sourcePoint" />
            <mxPoint x="300" y="400" as="targetPoint" />
          </mxGeometry>
        </mxCell>
        <mxCell id="sYYE232gGUa4oi_XJ-Jl-203" value="Consultar Projeto Comunitário&lt;span style=&quot;background-color: initial; text-wrap: nowrap; color: rgba(0, 0, 0, 0); font-family: monospace; font-size: 0px; text-align: start;&quot;&gt;%3CmxGraphModel%3E%3Croot%3E%3CmxCell%20id%3D%220%22%2F%3E%3CmxCell%20id%3D%221%22%20parent%3D%220%22%2F%3E%3CmxCell%20id%3D%222%22%20value%3D%22Emitir%20Relat%C3%B3rio%22%20style%3D%22ellipse%3BwhiteSpace%3Dwrap%3Bhtml%3D1%3B%22%20vertex%3D%221%22%20parent%3D%221%22%3E%3CmxGeometry%20x%3D%2280%22%20y%3D%222390%22%20width%3D%22130%22%20height%3D%2280%22%20as%3D%22geometry%22%2F%3E%3C%2FmxCell%3E%3C%2Froot%3E%3C%2FmxGraphModel%3EProjeo&lt;/span&gt;" style="ellipse;whiteSpace=wrap;html=1;" parent="1" vertex="1">
          <mxGeometry x="410" y="3870" width="130" height="80" as="geometry" />
        </mxCell>
        <mxCell id="uKR5ZbuTpGuFTntmtJGX-1" value="" style="endArrow=none;html=1;rounded=0;exitX=1.01;exitY=0.573;exitDx=0;exitDy=0;exitPerimeter=0;entryX=0.735;entryY=0.073;entryDx=0;entryDy=0;entryPerimeter=0;" edge="1" parent="1" source="sYYE232gGUa4oi_XJ-Jl-185" target="sYYE232gGUa4oi_XJ-Jl-184">
          <mxGeometry width="50" height="50" relative="1" as="geometry">
            <mxPoint x="340" y="2923" as="sourcePoint" />
            <mxPoint x="390" y="2873" as="targetPoint" />
          </mxGeometry>
        </mxCell>
        <mxCell id="uKR5ZbuTpGuFTntmtJGX-47" value="&amp;lt;&amp;lt;includes&amp;gt;&amp;gt;" style="edgeLabel;html=1;align=center;verticalAlign=middle;resizable=0;points=[];" vertex="1" connectable="0" parent="uKR5ZbuTpGuFTntmtJGX-1">
          <mxGeometry x="-0.2424" y="-2" relative="1" as="geometry">
            <mxPoint as="offset" />
          </mxGeometry>
        </mxCell>
        <mxCell id="uKR5ZbuTpGuFTntmtJGX-2" value="" style="endArrow=none;html=1;rounded=0;entryX=0.421;entryY=0.01;entryDx=0;entryDy=0;entryPerimeter=0;exitX=1;exitY=0.5;exitDx=0;exitDy=0;" edge="1" parent="1" source="sYYE232gGUa4oi_XJ-Jl-186" target="sYYE232gGUa4oi_XJ-Jl-184">
          <mxGeometry width="50" height="50" relative="1" as="geometry">
            <mxPoint x="240" y="2700" as="sourcePoint" />
            <mxPoint x="475" y="3060" as="targetPoint" />
          </mxGeometry>
        </mxCell>
        <mxCell id="uKR5ZbuTpGuFTntmtJGX-48" value="&amp;lt;&amp;lt;includes&amp;gt;&amp;gt;" style="edgeLabel;html=1;align=center;verticalAlign=middle;resizable=0;points=[];" vertex="1" connectable="0" parent="uKR5ZbuTpGuFTntmtJGX-2">
          <mxGeometry x="0.0132" y="-2" relative="1" as="geometry">
            <mxPoint as="offset" />
          </mxGeometry>
        </mxCell>
        <mxCell id="uKR5ZbuTpGuFTntmtJGX-3" value="" style="endArrow=none;html=1;rounded=0;" edge="1" parent="1" source="sYYE232gGUa4oi_XJ-Jl-189" target="sYYE232gGUa4oi_XJ-Jl-184">
          <mxGeometry width="50" height="50" relative="1" as="geometry">
            <mxPoint x="235" y="2730" as="sourcePoint" />
            <mxPoint x="445" y="3011" as="targetPoint" />
          </mxGeometry>
        </mxCell>
        <mxCell id="uKR5ZbuTpGuFTntmtJGX-49" value="&amp;lt;&amp;lt;includes&amp;gt;&amp;gt;" style="edgeLabel;html=1;align=center;verticalAlign=middle;resizable=0;points=[];" vertex="1" connectable="0" parent="uKR5ZbuTpGuFTntmtJGX-3">
          <mxGeometry x="-0.1982" y="-3" relative="1" as="geometry">
            <mxPoint as="offset" />
          </mxGeometry>
        </mxCell>
        <mxCell id="uKR5ZbuTpGuFTntmtJGX-4" value="" style="endArrow=none;html=1;rounded=0;entryX=0.087;entryY=0.25;entryDx=0;entryDy=0;entryPerimeter=0;" edge="1" parent="1" source="sYYE232gGUa4oi_XJ-Jl-191" target="sYYE232gGUa4oi_XJ-Jl-184">
          <mxGeometry width="50" height="50" relative="1" as="geometry">
            <mxPoint x="240" y="2844" as="sourcePoint" />
            <mxPoint x="420" y="3016" as="targetPoint" />
          </mxGeometry>
        </mxCell>
        <mxCell id="uKR5ZbuTpGuFTntmtJGX-50" value="&amp;lt;&amp;lt;includes&amp;gt;&amp;gt;" style="edgeLabel;html=1;align=center;verticalAlign=middle;resizable=0;points=[];" vertex="1" connectable="0" parent="uKR5ZbuTpGuFTntmtJGX-4">
          <mxGeometry x="-0.0575" y="-4" relative="1" as="geometry">
            <mxPoint as="offset" />
          </mxGeometry>
        </mxCell>
        <mxCell id="uKR5ZbuTpGuFTntmtJGX-5" value="" style="endArrow=none;html=1;rounded=0;exitX=1;exitY=0.5;exitDx=0;exitDy=0;entryX=0.055;entryY=0.365;entryDx=0;entryDy=0;entryPerimeter=0;" edge="1" parent="1" source="sYYE232gGUa4oi_XJ-Jl-201" target="sYYE232gGUa4oi_XJ-Jl-184">
          <mxGeometry width="50" height="50" relative="1" as="geometry">
            <mxPoint x="212" y="2918" as="sourcePoint" />
            <mxPoint x="380" y="3028" as="targetPoint" />
          </mxGeometry>
        </mxCell>
        <mxCell id="uKR5ZbuTpGuFTntmtJGX-51" value="&amp;lt;&amp;lt;includes&amp;gt;&amp;gt;" style="edgeLabel;html=1;align=center;verticalAlign=middle;resizable=0;points=[];" vertex="1" connectable="0" parent="uKR5ZbuTpGuFTntmtJGX-5">
          <mxGeometry x="-0.1975" y="-2" relative="1" as="geometry">
            <mxPoint as="offset" />
          </mxGeometry>
        </mxCell>
        <mxCell id="uKR5ZbuTpGuFTntmtJGX-6" value="" style="endArrow=none;html=1;rounded=0;" edge="1" parent="1" source="sYYE232gGUa4oi_XJ-Jl-187" target="sYYE232gGUa4oi_XJ-Jl-184">
          <mxGeometry width="50" height="50" relative="1" as="geometry">
            <mxPoint x="245" y="2980" as="sourcePoint" />
            <mxPoint x="396" y="3038" as="targetPoint" />
          </mxGeometry>
        </mxCell>
        <mxCell id="uKR5ZbuTpGuFTntmtJGX-52" value="&amp;lt;&amp;lt;includes&amp;gt;&amp;gt;" style="edgeLabel;html=1;align=center;verticalAlign=middle;resizable=0;points=[];" vertex="1" connectable="0" parent="uKR5ZbuTpGuFTntmtJGX-6">
          <mxGeometry x="-0.3268" y="-3" relative="1" as="geometry">
            <mxPoint as="offset" />
          </mxGeometry>
        </mxCell>
        <mxCell id="uKR5ZbuTpGuFTntmtJGX-7" value="" style="endArrow=none;html=1;rounded=0;entryX=0.087;entryY=0.792;entryDx=0;entryDy=0;entryPerimeter=0;" edge="1" parent="1" source="sYYE232gGUa4oi_XJ-Jl-192" target="sYYE232gGUa4oi_XJ-Jl-184">
          <mxGeometry width="50" height="50" relative="1" as="geometry">
            <mxPoint x="269" y="3073" as="sourcePoint" />
            <mxPoint x="391" y="3058" as="targetPoint" />
          </mxGeometry>
        </mxCell>
        <mxCell id="uKR5ZbuTpGuFTntmtJGX-53" value="&amp;lt;&amp;lt;includes&amp;gt;&amp;gt;" style="edgeLabel;html=1;align=center;verticalAlign=middle;resizable=0;points=[];" vertex="1" connectable="0" parent="uKR5ZbuTpGuFTntmtJGX-7">
          <mxGeometry x="0.0725" y="-2" relative="1" as="geometry">
            <mxPoint as="offset" />
          </mxGeometry>
        </mxCell>
        <mxCell id="uKR5ZbuTpGuFTntmtJGX-8" value="" style="endArrow=none;html=1;rounded=0;exitX=0.017;exitY=0.583;exitDx=0;exitDy=0;exitPerimeter=0;entryX=1;entryY=0.3333333333333333;entryDx=0;entryDy=0;entryPerimeter=0;" edge="1" parent="1" source="sYYE232gGUa4oi_XJ-Jl-185" target="sYYE232gGUa4oi_XJ-Jl-180">
          <mxGeometry width="50" height="50" relative="1" as="geometry">
            <mxPoint x="250" y="2900" as="sourcePoint" />
            <mxPoint x="300" y="2850" as="targetPoint" />
          </mxGeometry>
        </mxCell>
        <mxCell id="uKR5ZbuTpGuFTntmtJGX-9" value="" style="endArrow=none;html=1;rounded=0;exitX=0;exitY=0.5;exitDx=0;exitDy=0;" edge="1" parent="1" source="sYYE232gGUa4oi_XJ-Jl-186">
          <mxGeometry width="50" height="50" relative="1" as="geometry">
            <mxPoint x="122" y="2657" as="sourcePoint" />
            <mxPoint x="-80" y="2930" as="targetPoint" />
          </mxGeometry>
        </mxCell>
        <mxCell id="uKR5ZbuTpGuFTntmtJGX-10" value="" style="endArrow=none;html=1;rounded=0;exitX=0;exitY=0.5;exitDx=0;exitDy=0;" edge="1" parent="1" source="sYYE232gGUa4oi_XJ-Jl-189">
          <mxGeometry width="50" height="50" relative="1" as="geometry">
            <mxPoint x="105" y="2730" as="sourcePoint" />
            <mxPoint x="-80" y="2930" as="targetPoint" />
          </mxGeometry>
        </mxCell>
        <mxCell id="uKR5ZbuTpGuFTntmtJGX-11" value="" style="endArrow=none;html=1;rounded=0;exitX=0;exitY=0.5;exitDx=0;exitDy=0;" edge="1" parent="1" source="sYYE232gGUa4oi_XJ-Jl-191">
          <mxGeometry width="50" height="50" relative="1" as="geometry">
            <mxPoint x="140" y="2810" as="sourcePoint" />
            <mxPoint x="-80" y="2930" as="targetPoint" />
          </mxGeometry>
        </mxCell>
        <mxCell id="uKR5ZbuTpGuFTntmtJGX-12" value="" style="endArrow=none;html=1;rounded=0;exitX=0;exitY=0.5;exitDx=0;exitDy=0;" edge="1" parent="1" source="sYYE232gGUa4oi_XJ-Jl-201">
          <mxGeometry width="50" height="50" relative="1" as="geometry">
            <mxPoint x="100" y="2890" as="sourcePoint" />
            <mxPoint x="-80" y="2930" as="targetPoint" />
          </mxGeometry>
        </mxCell>
        <mxCell id="uKR5ZbuTpGuFTntmtJGX-13" value="" style="endArrow=none;html=1;rounded=0;exitX=0.068;exitY=0.26;exitDx=0;exitDy=0;exitPerimeter=0;" edge="1" parent="1" source="sYYE232gGUa4oi_XJ-Jl-187">
          <mxGeometry width="50" height="50" relative="1" as="geometry">
            <mxPoint x="130" y="2980" as="sourcePoint" />
            <mxPoint x="-80" y="2930" as="targetPoint" />
          </mxGeometry>
        </mxCell>
        <mxCell id="uKR5ZbuTpGuFTntmtJGX-14" value="" style="endArrow=none;html=1;rounded=0;" edge="1" parent="1" source="sYYE232gGUa4oi_XJ-Jl-192">
          <mxGeometry width="50" height="50" relative="1" as="geometry">
            <mxPoint x="139" y="3051" as="sourcePoint" />
            <mxPoint x="-80" y="2930" as="targetPoint" />
          </mxGeometry>
        </mxCell>
        <mxCell id="uKR5ZbuTpGuFTntmtJGX-15" value="" style="endArrow=none;html=1;rounded=0;" edge="1" parent="1" source="sYYE232gGUa4oi_XJ-Jl-193">
          <mxGeometry width="50" height="50" relative="1" as="geometry">
            <mxPoint x="119" y="3117" as="sourcePoint" />
            <mxPoint x="-80" y="2930" as="targetPoint" />
          </mxGeometry>
        </mxCell>
        <mxCell id="uKR5ZbuTpGuFTntmtJGX-16" value="" style="endArrow=none;html=1;rounded=0;exitX=0.279;exitY=0.917;exitDx=0;exitDy=0;exitPerimeter=0;" edge="1" parent="1" source="sYYE232gGUa4oi_XJ-Jl-184" target="sYYE232gGUa4oi_XJ-Jl-193">
          <mxGeometry width="50" height="50" relative="1" as="geometry">
            <mxPoint x="101" y="3203" as="sourcePoint" />
            <mxPoint x="-70" y="2940" as="targetPoint" />
          </mxGeometry>
        </mxCell>
        <mxCell id="uKR5ZbuTpGuFTntmtJGX-54" value="&amp;lt;&amp;lt;includes&amp;gt;&amp;gt;" style="edgeLabel;html=1;align=center;verticalAlign=middle;resizable=0;points=[];" vertex="1" connectable="0" parent="uKR5ZbuTpGuFTntmtJGX-16">
          <mxGeometry x="-0.3185" relative="1" as="geometry">
            <mxPoint as="offset" />
          </mxGeometry>
        </mxCell>
        <mxCell id="uKR5ZbuTpGuFTntmtJGX-17" value="" style="endArrow=none;html=1;rounded=0;entryX=0.087;entryY=0.24;entryDx=0;entryDy=0;entryPerimeter=0;" edge="1" parent="1" target="sYYE232gGUa4oi_XJ-Jl-196">
          <mxGeometry width="50" height="50" relative="1" as="geometry">
            <mxPoint x="-80" y="2930" as="sourcePoint" />
            <mxPoint x="185" y="3214" as="targetPoint" />
          </mxGeometry>
        </mxCell>
        <mxCell id="uKR5ZbuTpGuFTntmtJGX-18" value="" style="endArrow=none;html=1;rounded=0;entryX=1;entryY=0.5;entryDx=0;entryDy=0;exitX=0.35;exitY=1.01;exitDx=0;exitDy=0;exitPerimeter=0;" edge="1" parent="1" source="sYYE232gGUa4oi_XJ-Jl-184" target="sYYE232gGUa4oi_XJ-Jl-196">
          <mxGeometry width="50" height="50" relative="1" as="geometry">
            <mxPoint x="420" y="3080" as="sourcePoint" />
            <mxPoint x="65" y="3321" as="targetPoint" />
          </mxGeometry>
        </mxCell>
        <mxCell id="uKR5ZbuTpGuFTntmtJGX-55" value="&amp;lt;&amp;lt;includes&amp;gt;&amp;gt;" style="edgeLabel;html=1;align=center;verticalAlign=middle;resizable=0;points=[];" vertex="1" connectable="0" parent="uKR5ZbuTpGuFTntmtJGX-18">
          <mxGeometry x="-0.2465" y="-2" relative="1" as="geometry">
            <mxPoint as="offset" />
          </mxGeometry>
        </mxCell>
        <mxCell id="uKR5ZbuTpGuFTntmtJGX-19" value="" style="endArrow=none;html=1;rounded=0;exitX=0.5;exitY=1;exitDx=0;exitDy=0;" edge="1" parent="1" source="sYYE232gGUa4oi_XJ-Jl-184" target="sYYE232gGUa4oi_XJ-Jl-190">
          <mxGeometry width="50" height="50" relative="1" as="geometry">
            <mxPoint x="439" y="3098" as="sourcePoint" />
            <mxPoint x="190" y="3330" as="targetPoint" />
          </mxGeometry>
        </mxCell>
        <mxCell id="uKR5ZbuTpGuFTntmtJGX-56" value="&amp;lt;&amp;lt;includes&amp;gt;&amp;gt;" style="edgeLabel;html=1;align=center;verticalAlign=middle;resizable=0;points=[];" vertex="1" connectable="0" parent="uKR5ZbuTpGuFTntmtJGX-19">
          <mxGeometry x="0.587" y="1" relative="1" as="geometry">
            <mxPoint as="offset" />
          </mxGeometry>
        </mxCell>
        <mxCell id="uKR5ZbuTpGuFTntmtJGX-20" value="" style="endArrow=none;html=1;rounded=0;entryX=0.01;entryY=0.385;entryDx=0;entryDy=0;entryPerimeter=0;exitX=1;exitY=0.3333333333333333;exitDx=0;exitDy=0;exitPerimeter=0;" edge="1" parent="1" source="sYYE232gGUa4oi_XJ-Jl-180" target="sYYE232gGUa4oi_XJ-Jl-190">
          <mxGeometry width="50" height="50" relative="1" as="geometry">
            <mxPoint x="445" y="3100" as="sourcePoint" />
            <mxPoint x="159" y="3386" as="targetPoint" />
          </mxGeometry>
        </mxCell>
        <mxCell id="uKR5ZbuTpGuFTntmtJGX-21" value="" style="rounded=1;whiteSpace=wrap;html=1;" vertex="1" parent="1">
          <mxGeometry x="-35" y="3550" width="1100" height="660" as="geometry" />
        </mxCell>
        <mxCell id="uKR5ZbuTpGuFTntmtJGX-23" value="Consultar Quadro de Horários&lt;span style=&quot;background-color: initial; text-wrap: nowrap; color: rgba(0, 0, 0, 0); font-family: monospace; font-size: 0px; text-align: start;&quot;&gt;%w3CmxGraphModel%3E%3Croot%3E%3CmxCell%20id%3D%220%22%2F%3E%3CmxCell%20id%3D%221%22%20parent%3D%220%22%2F%3E%3CmxCell%20id%3D%222%22%20value%3D%22Emitir%20Relat%C3%B3rio%22%20style%3D%22ellipse%3BwhiteSpace%3Dwrap%3Bhtml%3D1%3B%22%20vertex%3D%221%22%20parent%3D%221%22%3E%3CmxGeometry%20x%3D%2280%22%20y%3D%222390%22%20width%3D%22130%22%20height%3D%2280%22%20as%3D%22geometry%22%2F%3E%3C%2FmxCell%3E%3C%2Froot%3E%3C%2FmxGraphModel%3E&lt;/span&gt;&lt;span style=&quot;background-color: initial;&quot;&gt;&amp;nbsp;&lt;/span&gt;" style="ellipse;whiteSpace=wrap;html=1;" vertex="1" parent="1">
          <mxGeometry x="90" y="3600" width="130" height="80" as="geometry" />
        </mxCell>
        <mxCell id="uKR5ZbuTpGuFTntmtJGX-24" value="Consultar Sala Virtual&lt;span style=&quot;background-color: initial; text-wrap: nowrap; color: rgba(0, 0, 0, 0); font-family: monospace; font-size: 0px; text-align: start;&quot;&gt;w3CmxGraphModel%3E%3Croot%3E%3CmxCell%20id%3D%220%22%2F%3E%3CmxCell%20id%3D%221%22%20parent%3D%220%22%2F%3E%3CmxCell%20id%3D%222%22%20value%3D%22Emitir%20Relat%C3%B3rio%22%20style%3D%22ellipse%3BwhiteSpace%3Dwrap%3Bhtml%3D1%3B%22%20vertex%3D%221%22%20parent%3D%221%22%3E%3CmxGeometry%20x%3D%2280%22%20y%3D%222390%22%20width%3D%22130%22%20height%3D%2280%22%20as%3D%22geometry%22%2F%3E%3C%2FmxCell%3E%3C%2Froot%3E%3C%2FmxGraphModel%3E&lt;/span&gt;&lt;span style=&quot;background-color: initial;&quot;&gt;&amp;nbsp;&lt;/span&gt;" style="ellipse;whiteSpace=wrap;html=1;" vertex="1" parent="1">
          <mxGeometry x="80" y="3870" width="130" height="80" as="geometry" />
        </mxCell>
        <mxCell id="uKR5ZbuTpGuFTntmtJGX-25" value="Consultar Portal de Periódicos&lt;span style=&quot;background-color: initial; text-wrap: nowrap; color: rgba(0, 0, 0, 0); font-family: monospace; font-size: 0px; text-align: start;&quot;&gt;%3CmxGraphModel%3E%3Croot%3E%3CmxCell%20id%3D%220%22%2F%3E%3CmxCell%20id%3D%221%22%20parent%3D%220%22%2F%3E%3CmxCell%20id%3D%222%22%20value%3D%22Emitir%20Relat%C3%B3rio%22%20style%3D%22ellipse%3BwhiteSpace%3Dwrap%3Bhtml%3D1%3B%22%20vertex%3D%221%22%20parent%3D%221%22%3E%3CmxGeometry%20x%3D%2280%22%20y%3D%222390%22%20width%3D%22130%22%20height%3D%2280%22%20as%3D%22geometry%22%2F%3E%3C%2FmxCell%3E%3C%2Froot%3E%3C%2FmxGraphModel%3E&lt;/span&gt;" style="ellipse;whiteSpace=wrap;html=1;" vertex="1" parent="1">
          <mxGeometry x="105" y="3780" width="130" height="80" as="geometry" />
        </mxCell>
        <mxCell id="uKR5ZbuTpGuFTntmtJGX-26" value="Consultar&amp;nbsp;&lt;span style=&quot;background-color: initial; text-wrap: nowrap; color: rgba(0, 0, 0, 0); font-family: monospace; font-size: 0px; text-align: start;&quot;&gt;CmxGraphModel%3E%3Croot%3E%3CmxCell%20id%3D%220%22%2F%3E%3CmxCell%20id%3D%221%22%20parent%3D%220%22%2F%3E%3CmxCell%20id%3D%222%22%20value%3D%22Emitir%20Relat%C3%B3rio%22%20style%3D%22ellipse%3BwhiteSpace%3Dwrap%3Bhtml%3D1%3B%22%20vertex%3D%221%22%20parent%3D%221%22%3E%3CmxGeometry%20x%3D%2280%22%20y%3D%222390%22%20width%3D%22130%22%20height%3D%2280%22%20as%3D%22geometry%22%2F%3E%3C%2FmxCell%3E%3C%2Froot%3E%3C%2FmxGraphModel%3E&lt;/span&gt;&lt;span style=&quot;background-color: initial;&quot;&gt;Plano de Ensino&lt;/span&gt;" style="ellipse;whiteSpace=wrap;html=1;" vertex="1" parent="1">
          <mxGeometry x="95" y="3690" width="130" height="80" as="geometry" />
        </mxCell>
        <mxCell id="uKR5ZbuTpGuFTntmtJGX-27" value="Consultar Extrato Financeiro&lt;span style=&quot;background-color: initial; text-wrap: nowrap; color: rgba(0, 0, 0, 0); font-family: monospace; font-size: 0px; text-align: start;&quot;&gt;%3CmxGraphModel%3E%3Croot%3E%3CmxCell%20id%3D%220%22%2F%3E%3CmxCell%20id%3D%221%22%20parent%3D%220%22%2F%3E%3CmxCell%20id%3D%222%22%20value%3D%22Emitir%20Relat%C3%B3rio%22%20style%3D%22ellipse%3BwhiteSpace%3Dwrap%3Bhtml%3D1%3B%22%20vertex%3D%221%22%20parent%3D%221%22%3E%3CmxGeometry%20x%3D%2280%22%20y%3D%222390%22%20width%3D%22130%22%20height%3D%2280%22%20as%3D%22geometry%22%2F%3E%3C%2FmxCell%3E%3C%2Froot%3E%3C%2FmxGraphModel%3E&lt;/span&gt;&lt;span style=&quot;background-color: initial;&quot;&gt;&amp;nbsp;&lt;/span&gt;" style="ellipse;whiteSpace=wrap;html=1;" vertex="1" parent="1">
          <mxGeometry x="80" y="4050" width="130" height="80" as="geometry" />
        </mxCell>
        <mxCell id="uKR5ZbuTpGuFTntmtJGX-28" value="Consultar Biblioteca Juridica&lt;span style=&quot;background-color: initial; text-wrap: nowrap; color: rgba(0, 0, 0, 0); font-family: monospace; font-size: 0px; text-align: start;&quot;&gt;%3CmxGraphModel%3E%3Croot%3E%3CmxCell%20id%3D%220%22%2F%3E%3CmxCell%20id%3D%221%22%20parent%3D%220%22%2F%3E%3CmxCell%20id%3D%222%22%20value%3D%22Emitir%20Relat%C3%B3rio%22%20style%3D%22ellipse%3BwhiteSpace%3Dwrap%3Bhtml%3D1%3B%22%20vertex%3D%221%22%20parent%3D%221%22%3E%3CmxGeometry%20x%3D%2280%22%20y%3D%222390%22%20width%3D%22130%22%20height%3D%2280%22%20as%3D%22geometry%22%2F%3E%3C%2FmxCell%3E%3C%2Froot%3E%3C%2FmxGraphModel%3E&lt;/span&gt;&lt;span style=&quot;background-color: initial;&quot;&gt;&amp;nbsp;&lt;/span&gt;" style="ellipse;whiteSpace=wrap;html=1;" vertex="1" parent="1">
          <mxGeometry x="80" y="3960" width="130" height="80" as="geometry" />
        </mxCell>
        <mxCell id="uKR5ZbuTpGuFTntmtJGX-29" value="&lt;div&gt;&lt;span style=&quot;background-color: initial;&quot;&gt;Fazer login&lt;/span&gt;&lt;br&gt;&lt;/div&gt;" style="ellipse;whiteSpace=wrap;html=1;fillColor=#dae8fc;strokeColor=#6c8ebf;" vertex="1" parent="1">
          <mxGeometry x="750" y="3770" width="120" height="80" as="geometry" />
        </mxCell>
        <mxCell id="uKR5ZbuTpGuFTntmtJGX-30" value="" style="endArrow=none;dashed=1;html=1;dashPattern=1 3;strokeWidth=2;rounded=0;" edge="1" parent="1" source="uKR5ZbuTpGuFTntmtJGX-29" target="uKR5ZbuTpGuFTntmtJGX-32">
          <mxGeometry width="50" height="50" relative="1" as="geometry">
            <mxPoint x="777" y="3840" as="sourcePoint" />
            <mxPoint x="504" y="3992" as="targetPoint" />
          </mxGeometry>
        </mxCell>
        <mxCell id="uKR5ZbuTpGuFTntmtJGX-31" value="&amp;lt;&amp;lt;includes&amp;gt;&amp;gt;" style="edgeLabel;html=1;align=center;verticalAlign=middle;resizable=0;points=[];" vertex="1" connectable="0" parent="uKR5ZbuTpGuFTntmtJGX-30">
          <mxGeometry x="0.0269" y="5" relative="1" as="geometry">
            <mxPoint as="offset" />
          </mxGeometry>
        </mxCell>
        <mxCell id="uKR5ZbuTpGuFTntmtJGX-32" value="Acessar Outros Serviços" style="ellipse;whiteSpace=wrap;html=1;fillColor=#d5e8d4;strokeColor=#82b366;" vertex="1" parent="1">
          <mxGeometry x="405" y="3800" width="130" height="80" as="geometry" />
        </mxCell>
        <mxCell id="uKR5ZbuTpGuFTntmtJGX-33" value="&lt;h2&gt;Outros Serviços pt. 2&lt;/h2&gt;" style="text;html=1;align=center;verticalAlign=middle;resizable=0;points=[];autosize=1;strokeColor=none;fillColor=none;" vertex="1" parent="1">
          <mxGeometry x="415" y="3560" width="200" height="60" as="geometry" />
        </mxCell>
        <mxCell id="uKR5ZbuTpGuFTntmtJGX-34" value="Actor" style="shape=umlActor;verticalLabelPosition=bottom;verticalAlign=top;html=1;outlineConnect=0;" vertex="1" parent="1">
          <mxGeometry x="-180" y="3800" width="90" height="120" as="geometry" />
        </mxCell>
        <mxCell id="uKR5ZbuTpGuFTntmtJGX-35" value="" style="endArrow=none;html=1;rounded=0;exitX=1;exitY=0.5;exitDx=0;exitDy=0;entryX=0.042;entryY=0.698;entryDx=0;entryDy=0;entryPerimeter=0;" edge="1" parent="1" source="uKR5ZbuTpGuFTntmtJGX-28" target="uKR5ZbuTpGuFTntmtJGX-32">
          <mxGeometry width="50" height="50" relative="1" as="geometry">
            <mxPoint x="420" y="3930" as="sourcePoint" />
            <mxPoint x="470" y="3880" as="targetPoint" />
          </mxGeometry>
        </mxCell>
        <mxCell id="uKR5ZbuTpGuFTntmtJGX-61" value="&amp;lt;&amp;lt;includes&amp;gt;&amp;gt;" style="edgeLabel;html=1;align=center;verticalAlign=middle;resizable=0;points=[];" vertex="1" connectable="0" parent="uKR5ZbuTpGuFTntmtJGX-35">
          <mxGeometry x="-0.179" y="3" relative="1" as="geometry">
            <mxPoint as="offset" />
          </mxGeometry>
        </mxCell>
        <mxCell id="uKR5ZbuTpGuFTntmtJGX-36" value="" style="endArrow=none;html=1;rounded=0;entryX=0;entryY=1;entryDx=0;entryDy=0;" edge="1" parent="1" source="uKR5ZbuTpGuFTntmtJGX-27" target="uKR5ZbuTpGuFTntmtJGX-32">
          <mxGeometry width="50" height="50" relative="1" as="geometry">
            <mxPoint x="430" y="3940" as="sourcePoint" />
            <mxPoint x="480" y="3890" as="targetPoint" />
          </mxGeometry>
        </mxCell>
        <mxCell id="uKR5ZbuTpGuFTntmtJGX-62" value="&amp;lt;&amp;lt;includes&amp;gt;&amp;gt;" style="edgeLabel;html=1;align=center;verticalAlign=middle;resizable=0;points=[];" vertex="1" connectable="0" parent="uKR5ZbuTpGuFTntmtJGX-36">
          <mxGeometry x="-0.1708" y="2" relative="1" as="geometry">
            <mxPoint as="offset" />
          </mxGeometry>
        </mxCell>
        <mxCell id="uKR5ZbuTpGuFTntmtJGX-37" value="" style="endArrow=none;html=1;rounded=0;exitX=1;exitY=0.5;exitDx=0;exitDy=0;entryX=0;entryY=0.5;entryDx=0;entryDy=0;" edge="1" parent="1" source="uKR5ZbuTpGuFTntmtJGX-24" target="uKR5ZbuTpGuFTntmtJGX-32">
          <mxGeometry width="50" height="50" relative="1" as="geometry">
            <mxPoint x="450" y="3940" as="sourcePoint" />
            <mxPoint x="490" y="3900" as="targetPoint" />
          </mxGeometry>
        </mxCell>
        <mxCell id="uKR5ZbuTpGuFTntmtJGX-60" value="&amp;lt;&amp;lt;includes&amp;gt;&amp;gt;" style="edgeLabel;html=1;align=center;verticalAlign=middle;resizable=0;points=[];" vertex="1" connectable="0" parent="uKR5ZbuTpGuFTntmtJGX-37">
          <mxGeometry x="-0.3597" y="-2" relative="1" as="geometry">
            <mxPoint as="offset" />
          </mxGeometry>
        </mxCell>
        <mxCell id="uKR5ZbuTpGuFTntmtJGX-38" value="" style="endArrow=none;html=1;rounded=0;exitX=1;exitY=0.5;exitDx=0;exitDy=0;" edge="1" parent="1" source="uKR5ZbuTpGuFTntmtJGX-25" target="uKR5ZbuTpGuFTntmtJGX-32">
          <mxGeometry width="50" height="50" relative="1" as="geometry">
            <mxPoint x="450" y="3960" as="sourcePoint" />
            <mxPoint x="500" y="3910" as="targetPoint" />
          </mxGeometry>
        </mxCell>
        <mxCell id="uKR5ZbuTpGuFTntmtJGX-59" value="&amp;lt;&amp;lt;includes&amp;gt;&amp;gt;" style="edgeLabel;html=1;align=center;verticalAlign=middle;resizable=0;points=[];" vertex="1" connectable="0" parent="uKR5ZbuTpGuFTntmtJGX-38">
          <mxGeometry x="-0.261" relative="1" as="geometry">
            <mxPoint as="offset" />
          </mxGeometry>
        </mxCell>
        <mxCell id="uKR5ZbuTpGuFTntmtJGX-39" value="" style="endArrow=none;html=1;rounded=0;exitX=1;exitY=0.5;exitDx=0;exitDy=0;entryX=0.1;entryY=0.229;entryDx=0;entryDy=0;entryPerimeter=0;" edge="1" parent="1" source="uKR5ZbuTpGuFTntmtJGX-26" target="uKR5ZbuTpGuFTntmtJGX-32">
          <mxGeometry width="50" height="50" relative="1" as="geometry">
            <mxPoint x="460" y="3970" as="sourcePoint" />
            <mxPoint x="510" y="3920" as="targetPoint" />
          </mxGeometry>
        </mxCell>
        <mxCell id="uKR5ZbuTpGuFTntmtJGX-58" value="&amp;lt;&amp;lt;includes&amp;gt;&amp;gt;" style="edgeLabel;html=1;align=center;verticalAlign=middle;resizable=0;points=[];" vertex="1" connectable="0" parent="uKR5ZbuTpGuFTntmtJGX-39">
          <mxGeometry x="-0.2977" y="-3" relative="1" as="geometry">
            <mxPoint y="1" as="offset" />
          </mxGeometry>
        </mxCell>
        <mxCell id="uKR5ZbuTpGuFTntmtJGX-40" value="" style="endArrow=none;html=1;rounded=0;exitX=1.004;exitY=0.594;exitDx=0;exitDy=0;exitPerimeter=0;" edge="1" parent="1" source="uKR5ZbuTpGuFTntmtJGX-23" target="uKR5ZbuTpGuFTntmtJGX-32">
          <mxGeometry width="50" height="50" relative="1" as="geometry">
            <mxPoint x="470" y="3980" as="sourcePoint" />
            <mxPoint x="520" y="3930" as="targetPoint" />
          </mxGeometry>
        </mxCell>
        <mxCell id="uKR5ZbuTpGuFTntmtJGX-57" value="&amp;lt;&amp;lt;includes&amp;gt;&amp;gt;" style="edgeLabel;html=1;align=center;verticalAlign=middle;resizable=0;points=[];" vertex="1" connectable="0" parent="uKR5ZbuTpGuFTntmtJGX-40">
          <mxGeometry x="-0.2701" y="1" relative="1" as="geometry">
            <mxPoint as="offset" />
          </mxGeometry>
        </mxCell>
        <mxCell id="uKR5ZbuTpGuFTntmtJGX-41" value="" style="endArrow=none;html=1;rounded=0;entryX=0;entryY=0.5;entryDx=0;entryDy=0;exitX=1;exitY=0.3333333333333333;exitDx=0;exitDy=0;exitPerimeter=0;" edge="1" parent="1" source="uKR5ZbuTpGuFTntmtJGX-34" target="uKR5ZbuTpGuFTntmtJGX-27">
          <mxGeometry width="50" height="50" relative="1" as="geometry">
            <mxPoint x="202" y="4072" as="sourcePoint" />
            <mxPoint x="484" y="3908" as="targetPoint" />
          </mxGeometry>
        </mxCell>
        <mxCell id="uKR5ZbuTpGuFTntmtJGX-42" value="" style="endArrow=none;html=1;rounded=0;exitX=0;exitY=0.5;exitDx=0;exitDy=0;" edge="1" parent="1" source="uKR5ZbuTpGuFTntmtJGX-23">
          <mxGeometry width="50" height="50" relative="1" as="geometry">
            <mxPoint x="-80" y="3850" as="sourcePoint" />
            <mxPoint x="-90" y="3840" as="targetPoint" />
          </mxGeometry>
        </mxCell>
        <mxCell id="uKR5ZbuTpGuFTntmtJGX-43" value="" style="endArrow=none;html=1;rounded=0;" edge="1" parent="1" target="uKR5ZbuTpGuFTntmtJGX-26">
          <mxGeometry width="50" height="50" relative="1" as="geometry">
            <mxPoint x="-90" y="3840" as="sourcePoint" />
            <mxPoint x="-80" y="3850" as="targetPoint" />
          </mxGeometry>
        </mxCell>
        <mxCell id="uKR5ZbuTpGuFTntmtJGX-44" value="" style="endArrow=none;html=1;rounded=0;entryX=0.068;entryY=0.313;entryDx=0;entryDy=0;entryPerimeter=0;" edge="1" parent="1" target="uKR5ZbuTpGuFTntmtJGX-25">
          <mxGeometry width="50" height="50" relative="1" as="geometry">
            <mxPoint x="-90" y="3840" as="sourcePoint" />
            <mxPoint x="117" y="3763" as="targetPoint" />
          </mxGeometry>
        </mxCell>
        <mxCell id="uKR5ZbuTpGuFTntmtJGX-45" value="" style="endArrow=none;html=1;rounded=0;" edge="1" parent="1" target="uKR5ZbuTpGuFTntmtJGX-24">
          <mxGeometry width="50" height="50" relative="1" as="geometry">
            <mxPoint x="-90" y="3840" as="sourcePoint" />
            <mxPoint x="124" y="3815" as="targetPoint" />
          </mxGeometry>
        </mxCell>
        <mxCell id="uKR5ZbuTpGuFTntmtJGX-46" value="" style="endArrow=none;html=1;rounded=0;" edge="1" parent="1" target="uKR5ZbuTpGuFTntmtJGX-28">
          <mxGeometry width="50" height="50" relative="1" as="geometry">
            <mxPoint x="-90" y="3840" as="sourcePoint" />
            <mxPoint x="96" y="3903" as="targetPoint" />
          </mxGeometry>
        </mxCell>
        <mxCell id="uKR5ZbuTpGuFTntmtJGX-63" value="" style="rounded=1;whiteSpace=wrap;html=1;" vertex="1" parent="1">
          <mxGeometry x="27.5" y="-350" width="725" height="460" as="geometry" />
        </mxCell>
        <mxCell id="uKR5ZbuTpGuFTntmtJGX-64" value="Actor" style="shape=umlActor;verticalLabelPosition=bottom;verticalAlign=top;html=1;outlineConnect=0;" vertex="1" parent="1">
          <mxGeometry x="-110" y="-190" width="60" height="100" as="geometry" />
        </mxCell>
        <mxCell id="uKR5ZbuTpGuFTntmtJGX-65" value="&lt;h2&gt;Usuário&lt;/h2&gt;" style="text;html=1;align=center;verticalAlign=middle;resizable=0;points=[];autosize=1;strokeColor=none;fillColor=none;" vertex="1" parent="1">
          <mxGeometry x="355" y="-330" width="90" height="60" as="geometry" />
        </mxCell>
        <mxCell id="uKR5ZbuTpGuFTntmtJGX-66" value="&lt;div&gt;&lt;span style=&quot;background-color: initial;&quot;&gt;Fazer login&lt;/span&gt;&lt;br&gt;&lt;/div&gt;" style="ellipse;whiteSpace=wrap;html=1;fillColor=#dae8fc;strokeColor=#6c8ebf;" vertex="1" parent="1">
          <mxGeometry x="530" y="-200" width="120" height="80" as="geometry" />
        </mxCell>
        <mxCell id="uKR5ZbuTpGuFTntmtJGX-67" value="" style="endArrow=none;dashed=1;html=1;dashPattern=1 3;strokeWidth=2;rounded=0;exitX=0;exitY=0.5;exitDx=0;exitDy=0;entryX=0.976;entryY=0.575;entryDx=0;entryDy=0;entryPerimeter=0;" edge="1" parent="1" source="uKR5ZbuTpGuFTntmtJGX-66" target="uKR5ZbuTpGuFTntmtJGX-69">
          <mxGeometry width="50" height="50" relative="1" as="geometry">
            <mxPoint x="147.5" y="-270" as="sourcePoint" />
            <mxPoint x="502.5" y="-162" as="targetPoint" />
          </mxGeometry>
        </mxCell>
        <mxCell id="uKR5ZbuTpGuFTntmtJGX-68" value="&amp;lt;&amp;lt;includes&amp;gt;&amp;gt;" style="edgeLabel;html=1;align=center;verticalAlign=middle;resizable=0;points=[];" vertex="1" connectable="0" parent="uKR5ZbuTpGuFTntmtJGX-67">
          <mxGeometry x="0.2605" y="-2" relative="1" as="geometry">
            <mxPoint x="1" as="offset" />
          </mxGeometry>
        </mxCell>
        <mxCell id="uKR5ZbuTpGuFTntmtJGX-69" value="Consultar Cadastro Acadêmico" style="ellipse;whiteSpace=wrap;html=1;" vertex="1" parent="1">
          <mxGeometry x="190" y="-280" width="120" height="80" as="geometry" />
        </mxCell>
        <mxCell id="uKR5ZbuTpGuFTntmtJGX-70" value="Realizar Alteração de Senha" style="ellipse;whiteSpace=wrap;html=1;" vertex="1" parent="1">
          <mxGeometry x="190" y="-180" width="120" height="80" as="geometry" />
        </mxCell>
        <mxCell id="uKR5ZbuTpGuFTntmtJGX-71" value="Sair da conta" style="ellipse;whiteSpace=wrap;html=1;" vertex="1" parent="1">
          <mxGeometry x="170" y="-70" width="120" height="80" as="geometry" />
        </mxCell>
        <mxCell id="uKR5ZbuTpGuFTntmtJGX-72" value="" style="endArrow=none;dashed=1;html=1;dashPattern=1 3;strokeWidth=2;rounded=0;exitX=0;exitY=0.5;exitDx=0;exitDy=0;" edge="1" parent="1" target="uKR5ZbuTpGuFTntmtJGX-70">
          <mxGeometry width="50" height="50" relative="1" as="geometry">
            <mxPoint x="540" y="-150" as="sourcePoint" />
            <mxPoint x="332" y="-224" as="targetPoint" />
          </mxGeometry>
        </mxCell>
        <mxCell id="uKR5ZbuTpGuFTntmtJGX-73" value="&amp;lt;&amp;lt;includes&amp;gt;&amp;gt;" style="edgeLabel;html=1;align=center;verticalAlign=middle;resizable=0;points=[];" vertex="1" connectable="0" parent="uKR5ZbuTpGuFTntmtJGX-72">
          <mxGeometry x="0.2605" y="-2" relative="1" as="geometry">
            <mxPoint x="1" as="offset" />
          </mxGeometry>
        </mxCell>
        <mxCell id="uKR5ZbuTpGuFTntmtJGX-74" value="" style="endArrow=none;dashed=1;html=1;dashPattern=1 3;strokeWidth=2;rounded=0;exitX=0;exitY=1;exitDx=0;exitDy=0;" edge="1" parent="1" source="uKR5ZbuTpGuFTntmtJGX-66" target="uKR5ZbuTpGuFTntmtJGX-71">
          <mxGeometry width="50" height="50" relative="1" as="geometry">
            <mxPoint x="550" y="-140" as="sourcePoint" />
            <mxPoint x="320" y="-124" as="targetPoint" />
          </mxGeometry>
        </mxCell>
        <mxCell id="uKR5ZbuTpGuFTntmtJGX-75" value="&amp;lt;&amp;lt;includes&amp;gt;&amp;gt;" style="edgeLabel;html=1;align=center;verticalAlign=middle;resizable=0;points=[];" vertex="1" connectable="0" parent="uKR5ZbuTpGuFTntmtJGX-74">
          <mxGeometry x="0.2605" y="-2" relative="1" as="geometry">
            <mxPoint x="1" as="offset" />
          </mxGeometry>
        </mxCell>
        <mxCell id="uKR5ZbuTpGuFTntmtJGX-76" value="" style="endArrow=none;html=1;rounded=0;exitX=1;exitY=0.3333333333333333;exitDx=0;exitDy=0;exitPerimeter=0;" edge="1" parent="1" source="uKR5ZbuTpGuFTntmtJGX-64" target="uKR5ZbuTpGuFTntmtJGX-69">
          <mxGeometry width="50" height="50" relative="1" as="geometry">
            <mxPoint x="420" y="-160" as="sourcePoint" />
            <mxPoint x="470" y="-210" as="targetPoint" />
          </mxGeometry>
        </mxCell>
        <mxCell id="uKR5ZbuTpGuFTntmtJGX-77" value="" style="endArrow=none;html=1;rounded=0;exitX=1;exitY=0.3333333333333333;exitDx=0;exitDy=0;exitPerimeter=0;" edge="1" parent="1" source="uKR5ZbuTpGuFTntmtJGX-64" target="uKR5ZbuTpGuFTntmtJGX-70">
          <mxGeometry width="50" height="50" relative="1" as="geometry">
            <mxPoint x="-40" y="-147" as="sourcePoint" />
            <mxPoint x="219" y="-215" as="targetPoint" />
          </mxGeometry>
        </mxCell>
        <mxCell id="uKR5ZbuTpGuFTntmtJGX-78" value="" style="endArrow=none;html=1;rounded=0;entryX=0.025;entryY=0.429;entryDx=0;entryDy=0;entryPerimeter=0;exitX=1;exitY=0.3333333333333333;exitDx=0;exitDy=0;exitPerimeter=0;" edge="1" parent="1" source="uKR5ZbuTpGuFTntmtJGX-64" target="uKR5ZbuTpGuFTntmtJGX-71">
          <mxGeometry width="50" height="50" relative="1" as="geometry">
            <mxPoint x="-50" y="-160" as="sourcePoint" />
            <mxPoint x="201" y="-125" as="targetPoint" />
          </mxGeometry>
        </mxCell>
      </root>
    </mxGraphModel>
  </diagram>
</mxfile>
